<svg width="178" height="32" viewBox="0 0 178 32" fill="none" xmlns="http://www.w3.org/2000/svg">
<g clip-path="url(#clip0_14_858)">
<path d="M28.5076 18.4807L28.5004 18.4659L28.4925 18.4514L19.1494 1.31494H32.6466L49.2705 30.3893C48.8907 30.3737 48.4309 30.3464 47.9058 30.2995C46.3106 30.1572 44.121 29.8358 41.7426 29.1204C36.981 27.6884 31.5315 24.702 28.5076 18.4807Z" stroke="#1A1A1A" stroke-width="2" stroke-linecap="round"/>
<path fill-rule="evenodd" clip-rule="evenodd" d="M33.3725 0.609863H18.279L0.840332 31.1093C0.840332 31.1093 17.1793 31.7125 23.4607 18.7888L33.3725 0.609863Z" fill="#1A1A1A"/>
<path fill-rule="evenodd" clip-rule="evenodd" d="M70.9846 20.4902C69.9048 21.4523 68.8684 21.9647 67.0903 21.9647C64.762 21.9647 63.2378 20.4687 63.2378 18.5462C63.2378 16.4089 64.6769 15.1484 66.7939 15.1484H70.8151V13.7161C70.8151 12.178 69.8835 11.1308 68.36 11.1308H67.2802C66.2225 11.1308 65.2704 11.6655 64.7833 12.6052L63.5136 12.0069C64.1906 10.6613 65.6511 9.74219 67.3228 9.74219H68.3813C70.6669 9.74219 72.297 11.3448 72.297 13.6525V21.7936H71.2809L70.9846 20.4902ZM66.7299 16.537C65.4602 16.537 64.7193 17.2429 64.7193 18.5248C64.7193 19.6993 65.5658 20.5754 67.1531 20.5754C69.4814 20.5754 70.8149 19.3364 70.8149 17.8405V16.537H66.7299Z" fill="#1A1A1A"/>
<path fill-rule="evenodd" clip-rule="evenodd" d="M91.0222 10.9171C91.5939 10.1692 92.6098 9.74188 93.6672 9.74188H94.4723C96.7579 9.74188 98.6 11.6007 98.6 13.9083V17.7971C98.6 20.1055 96.7579 21.9643 94.4723 21.9643H93.6672C92.4617 21.9643 91.4247 21.3875 90.7902 20.4898L90.5569 21.7932H89.541V6.49365H91.0222V10.9171ZM94.4723 11.1305H93.6672C92.1861 11.1305 91.0222 12.3057 91.0222 13.8018V17.7972C91.0222 19.336 92.1438 20.575 93.6672 20.575H94.4723C95.9958 20.575 97.1181 19.336 97.1181 17.7972V13.9084C97.1181 12.3702 95.9958 11.1305 94.4723 11.1305Z" fill="#1A1A1A"/>
<path fill-rule="evenodd" clip-rule="evenodd" d="M119.759 9.74219H120.563C122.85 9.74219 124.691 11.6011 124.691 13.9087V17.7975C124.691 20.1058 122.85 21.9647 120.563 21.9647H119.759C117.474 21.9647 115.632 20.1058 115.632 17.7975V13.9087C115.632 11.6011 117.474 9.74219 119.759 9.74219ZM120.563 20.5751C122.087 20.5751 123.209 19.3362 123.209 17.7973V13.9085C123.209 12.3703 122.087 11.1306 120.563 11.1306H119.759C118.235 11.1306 117.114 12.3703 117.114 13.9085V17.7973C117.114 19.3362 118.235 20.5751 119.759 20.5751H120.563Z" fill="#1A1A1A"/>
<path fill-rule="evenodd" clip-rule="evenodd" d="M149.766 21.7932L149.555 20.618C148.857 21.4519 147.861 21.9643 146.656 21.9643H145.851C143.565 21.9643 141.724 20.1055 141.724 17.7971V13.9083C141.724 11.6007 143.565 9.74188 145.851 9.74188H146.656C147.713 9.74188 148.623 10.1477 149.301 10.8106V6.49365H150.782V21.7932H149.766ZM143.205 17.7972C143.205 19.336 144.328 20.575 145.851 20.575H146.656C148.179 20.575 149.301 19.336 149.301 17.7972V13.9084C149.301 12.3702 148.179 11.1305 146.656 11.1305H145.851C144.328 11.1305 143.205 12.3702 143.205 13.9084V17.7972Z" fill="#1A1A1A"/>
<path fill-rule="evenodd" clip-rule="evenodd" d="M176.852 19.6993C176.174 21.0456 174.777 21.9647 173.169 21.9647H172.153C169.867 21.9647 168.026 20.1058 168.026 17.7975V13.9087C168.026 11.6011 169.867 9.74219 172.153 9.74219H172.958C175.243 9.74219 177.085 11.6011 177.085 13.9087V16.537H169.507V17.7975C169.507 19.3364 170.629 20.5754 172.153 20.5754H173.169C174.227 20.5754 175.116 19.9777 175.539 19.0802L176.852 19.6993ZM175.603 13.9085C175.603 12.3703 174.481 11.1306 172.958 11.1306H172.153C170.63 11.1306 169.508 12.3703 169.508 13.9085V15.1482H175.603V13.9085Z" fill="#1A1A1A"/>
</g>
<defs>
<clipPath id="clip0_14_858">
<rect width="176.244" height="31.724" fill="white" transform="translate(0.840332)"/>
</clipPath>
</defs>
</svg>
