<svg width="76" height="76" viewBox="0 0 76 76" fill="none" xmlns="http://www.w3.org/2000/svg">
<rect width="76" height="76" fill="#FEA803"/>
<path d="M46.5436 44.5409L52.6112 50.6071L50.6066 52.6117L44.5404 46.5441C42.2833 48.3535 39.4758 49.3376 36.583 49.3335C29.545 49.3335 23.833 43.6215 23.833 36.5835C23.833 29.5455 29.545 23.8335 36.583 23.8335C43.621 23.8335 49.333 29.5455 49.333 36.5835C49.3371 39.4763 48.353 42.2838 46.5436 44.5409ZM43.7018 43.4897C45.4997 41.6408 46.5037 39.1624 46.4997 36.5835C46.4997 31.1038 42.0613 26.6668 36.583 26.6668C31.1033 26.6668 26.6663 31.1038 26.6663 36.5835C26.6663 42.0617 31.1033 46.5002 36.583 46.5002C39.1619 46.5042 41.6403 45.5002 43.4893 43.7022L43.7018 43.4897ZM38.2518 31.1662C37.8341 31.3549 37.4684 31.6421 37.1861 32.0032C36.9038 32.3643 36.7133 32.7885 36.6309 33.2395C36.5486 33.6904 36.577 34.1546 36.7135 34.5921C36.85 35.0297 37.0906 35.4276 37.4148 35.7517C37.7389 36.0759 38.1368 36.3165 38.5744 36.453C39.0119 36.5896 39.4761 36.6179 39.927 36.5356C40.378 36.4532 40.8022 36.2627 41.1633 35.9804C41.5244 35.6981 41.8116 35.3324 42.0003 34.9147C42.3726 36.124 42.3295 37.4231 41.8778 38.605C41.426 39.7869 40.5917 40.7837 39.5078 41.4364C38.4238 42.0892 37.1526 42.3603 35.8967 42.2067C34.6407 42.0532 33.4723 41.4836 32.5776 40.5889C31.6829 39.6942 31.1133 38.5258 30.9598 37.2698C30.8062 36.0139 31.0773 34.7427 31.7301 33.6587C32.3828 32.5748 33.3796 31.7405 34.5615 31.2887C35.7434 30.837 37.0425 30.7939 38.2518 31.1662Z" fill="white"/>
</svg>
