<svg width="184" height="22" viewBox="0 0 184 22" fill="none" xmlns="http://www.w3.org/2000/svg">
<g clip-path="url(#clip0_14_886)">
<path fill-rule="evenodd" clip-rule="evenodd" d="M123.366 2.3999V20.1908H124.909V5.80376L137.753 20.1908H145.333C158.404 20.1908 157.995 2.3999 145.333 2.3999H138.253V18.2392L124.183 2.3999H123.366ZM139.75 18.7838V3.94298H145.333C155.861 3.94298 155.635 18.7838 145.333 18.7838H139.75Z" fill="#1A1A1A"/>
<path d="M156.86 20.1908V2.44531H171.202L171.52 3.76148H158.449L158.404 10.9323H170.294V12.3392H158.404V18.92H171.202V20.1908H156.86Z" fill="#1A1A1A"/>
<path d="M76.4835 2.3999H75.0771L75.0312 20.2475H76.4835V13.7461H89.3275V20.2475H90.7346V2.3999H89.3275V12.2484H76.4835V2.3999Z" fill="#1A1A1A"/>
<path d="M99.4736 3.81424H92.9131V2.3999H107.255V3.81424H100.966V20.2362H99.4736V3.81424Z" fill="#1A1A1A"/>
<path d="M14.7153 3.76145V2.3999H0.600586V20.2362H2.00752V12.5661H13.8076V11.0684H2.00752V3.76145H14.7153Z" fill="#1A1A1A"/>
<path d="M50.8414 2.44531H49.3438V20.2361H50.8414V2.44531Z" fill="#1A1A1A"/>
<path d="M16.4854 2.3999V20.1908H17.7561V3.57991H22.6577C29.2839 3.57991 29.5108 13.973 22.7938 13.973H19.7531L25.9707 20.1908H28.0585L22.7938 15.1531H23.0208C31.417 15.1531 30.9177 2.3999 23.0208 2.3999H16.4854Z" fill="#1A1A1A"/>
<path d="M177.783 2.44531H170.794V3.76148H172.518H177.556C184.182 3.76148 184.273 14.0185 177.556 14.0185H174.516L180.733 20.2362H182.821L177.556 15.1985H177.783C186.179 15.1985 185.68 2.44531 177.783 2.44531Z" fill="#1A1A1A"/>
<path d="M46.2118 3.62529V2.3999H31.9609V20.2362H46.1664V18.8746H33.3225V12.203H45.2587V10.7053H33.3225V3.62529H46.2118Z" fill="#1A1A1A"/>
<path d="M121.506 3.62529V2.3999H107.255V20.2362H121.46V18.8746H108.616V12.203H120.553V10.7053H108.616V3.62529H121.506Z" fill="#1A1A1A"/>
<path d="M72.4924 12.6032C72.0919 14.8687 70.8369 16.9003 68.9704 18.3058C67.1039 19.7112 64.758 20.3907 62.3857 20.213C60.0135 20.0354 57.7832 19.0133 56.1254 17.344C54.4676 15.6747 53.5 13.4767 53.4093 11.1743C53.3187 8.87199 54.1116 6.62862 55.6347 4.87745C57.1578 3.12628 59.3032 1.99151 61.6567 1.69226C64.0101 1.393 66.4047 1.9505 68.378 3.25708C70.3512 4.56367 71.7634 6.52667 72.3415 8.76702L71.0358 9.06945C70.5386 7.14275 69.3243 5.45455 67.6273 4.33088C65.9303 3.20721 63.871 2.72777 61.847 2.98513C59.8231 3.24249 57.9779 4.21839 56.6681 5.7244C55.3582 7.23038 54.6764 9.15969 54.7543 11.1397C54.8323 13.1198 55.6644 15.01 57.0901 16.4456C58.5158 17.8812 60.4339 18.7603 62.474 18.913C64.5141 19.0657 66.5316 18.4814 68.1367 17.2727C69.742 16.0641 70.821 14.3169 71.1656 12.3685L72.4924 12.6032Z" fill="#1A1A1A"/>
<path d="M71.7144 13.4279H64.2305V11.9756H72.6267C72.5512 12.5447 72.4384 12.8622 72.3073 13.4279H71.7144Z" fill="#1A1A1A"/>
</g>
<defs>
<clipPath id="clip0_14_886">
<rect width="183.294" height="21.8543" fill="white" transform="translate(0.600586)"/>
</clipPath>
</defs>
</svg>
