<svg width="121" height="28" viewBox="0 0 121 28" fill="none" xmlns="http://www.w3.org/2000/svg">
<g clip-path="url(#clip0_14_914)">
<path d="M21.1228 8.07431L22.4152 3.76603C12.4344 1.18107 3.60248 4.12505 1.08938 14.6085C-0.490344 25.6663 6.54647 29.3284 18.3942 25.2355L20.5483 14.1776H13.296L12.3627 17.6243H15.0912L14.445 22.2915C7.18886 23.4619 5.43613 21.6362 5.82846 14.6085C9.09566 6.99607 12.6103 5.87626 21.1228 8.07431Z" fill="#1A1A1A"/>
<path fill-rule="evenodd" clip-rule="evenodd" d="M38.8581 9.58311L36.2732 23.1541L39.2172 23.2977L38.5709 26.2417L31.3905 26.6725L33.042 21.1436C30.3915 25.4579 28.307 26.8302 25.4308 26.7444C20.62 26.6007 21.6836 19.5639 22.1998 17.9124C24.7129 9.87032 29.0839 8.08715 38.8581 9.58311ZM34.0473 12.8143C33.4011 18.2715 26.6752 27.1752 26.3643 21.1436C26.0052 14.1786 30.7974 11.4118 34.0473 12.8143Z" fill="#1A1A1A"/>
<path d="M45.8769 6.83491C47.1457 7.6479 48.8529 7.24788 49.69 5.94145C50.5271 4.63501 50.1771 2.91687 48.9083 2.10388C47.6394 1.29089 45.9322 1.69091 45.0952 2.99735C44.2581 4.30379 44.6081 6.02192 45.8769 6.83491Z" fill="#1A1A1A"/>
<path d="M40.8691 12.3117L41.3717 9.58305L48.624 9.36768L45.8954 23.0823L48.8394 23.5131L48.2649 26.2416L41.0845 26.5289L43.8131 12.8142L40.8691 12.3117Z" fill="#1A1A1A"/>
<path d="M50.3467 12.7419H53.3624L51.7109 21.2148C50.9929 24.8768 52.7162 26.5829 54.0087 26.6719C56.1933 26.8223 57.323 26.7558 59.1786 26.3847L59.6094 22.8663C56.8856 23.1923 55.5884 23.5125 56.2346 20.4968L57.6707 12.7419H61.7635L62.4098 9.22347H58.3169L59.4658 3.12012L54.9421 4.12538L54.0087 9.22347H51.0647L50.3467 12.7419Z" fill="#1A1A1A"/>
<path d="M65.8566 4.41239L62.9126 4.05338L63.3434 1.39662L70.5956 1.0376L68.8723 10.0849C68.2701 13.3047 68.0107 14.824 69.6622 14.824C71.6009 14.824 75.2632 10.3004 76.5555 1.18121H81.0074L78.2072 14.824L81.2224 15.0394L80.5766 17.9116L73.5396 18.1988L74.9756 12.8853C72.4313 17.4868 69.8776 19.1918 66.79 18.486C64.2769 17.9116 63.5588 15.6857 64.0615 13.3879L65.8566 4.41239Z" fill="#1A1A1A"/>
<path fill-rule="evenodd" clip-rule="evenodd" d="M83.5206 1.32467L90.7008 1.03745L89.1929 6.35096C90.1982 4.34044 93.0703 0.391211 96.5169 0.678428C100.826 1.03745 100.538 5.13029 100.179 8.72047C99.8204 12.3107 96.5169 19.4193 87.4699 18.414L86.6084 23.4404L89.1929 24.1584L88.4033 26.3125H79.1406L79.7871 24.1584L82.0846 23.4404L85.4593 4.41225L82.8742 4.05323L83.5206 1.32467ZM88.1164 14.6803C88.7622 9.07951 95.1528 0.534819 95.8711 6.35096C96.3942 10.5874 93.286 16.7626 88.1164 14.6803Z" fill="#1A1A1A"/>
<path fill-rule="evenodd" clip-rule="evenodd" d="M103.554 1.0376V18.3424H120.715V1.0376H103.554ZM110.232 7.6436V3.33533H114.109V7.6436H118.346V11.521H114.109V15.8293H110.232V11.521H105.996V7.6436H110.232Z" fill="#1A1A1A"/>
</g>
<defs>
<clipPath id="clip0_14_914">
<rect width="119.846" height="27.4941" fill="white" transform="translate(0.869141)"/>
</clipPath>
</defs>
</svg>
