<svg width="128" height="33" viewBox="0 0 128 33" fill="none" xmlns="http://www.w3.org/2000/svg">
<path d="M28.3248 16.5123C28.3468 19.7949 25.6712 22.4866 22.3678 22.4974C20.7822 22.5085 19.2847 21.9067 18.1506 20.8014C17.622 20.2873 17.2036 19.7072 16.9063 19.0618C16.609 19.7072 16.1906 20.2982 15.6731 20.8234C14.5499 21.9395 13.0524 22.5632 11.4669 22.5632H11.4118V22.5741L5.45482 22.6288L5.38875 10.7023L11.4228 10.6694C13.0084 10.6585 14.5059 11.2493 15.64 12.3545C16.1686 12.8686 16.587 13.4487 16.8843 14.0833C17.1816 13.4377 17.589 12.8468 18.1065 12.3215C19.2296 11.2056 20.7162 10.5927 22.3017 10.5819C25.6161 10.5709 28.3138 13.2298 28.3248 16.5123ZM5.27864 5.14382C2.21756 8.22943 0.532873 12.3217 0.565906 16.6546C0.587929 20.9985 2.30566 25.0579 5.41078 28.1107C8.50489 31.1633 12.612 32.8266 16.9724 32.8046C21.3328 32.7827 25.4179 31.065 28.4899 27.9902C31.551 24.9046 33.2357 20.8123 33.2027 16.4794C33.1806 12.1356 31.463 8.07609 28.3578 5.02335C25.2637 1.97059 21.1566 0.307432 16.7962 0.329315C12.4358 0.351308 8.33972 2.06917 5.27864 5.14382Z" fill="#1A1A1A"/>
<path d="M28.3248 16.5123C28.3468 19.7949 25.6712 22.4866 22.3678 22.4974C20.7822 22.5085 19.2847 21.9067 18.1506 20.8014C17.622 20.2873 17.2036 19.7072 16.9063 19.0618C16.609 19.7072 16.1906 20.2982 15.6731 20.8234C14.5499 21.9395 13.0524 22.5632 11.4669 22.5632H11.4118V22.5741L5.45482 22.6288L5.38875 10.7023L11.4228 10.6694C13.0084 10.6585 14.5059 11.2493 15.64 12.3545C16.1686 12.8686 16.587 13.4487 16.8843 14.0833C17.1816 13.4377 17.589 12.8468 18.1065 12.3215C19.2296 11.2056 20.7162 10.5927 22.3017 10.5819C25.6161 10.5709 28.3138 13.2298 28.3248 16.5123ZM5.27864 5.14382C2.21756 8.22943 0.532873 12.3217 0.565906 16.6546C0.587929 20.9985 2.30566 25.0579 5.41078 28.1107C8.50489 31.1633 12.612 32.8266 16.9724 32.8046C21.3328 32.7827 25.4179 31.065 28.4899 27.9902C31.551 24.9046 33.2357 20.8123 33.2027 16.4794C33.1806 12.1356 31.463 8.07609 28.3578 5.02335C25.2637 1.97059 21.1566 0.307432 16.7962 0.329315C12.4358 0.351308 8.33972 2.06917 5.27864 5.14382Z" fill="#1A1A1A"/>
<path d="M22.5116 20.3308C21.4985 20.3308 20.5516 19.9478 19.8249 19.2476C19.1092 18.5474 18.7018 17.6064 18.6797 16.6105V16.523C18.6908 15.5163 19.0871 14.5754 19.8029 13.8641C20.5185 13.153 21.4655 12.7589 22.4675 12.7481C24.5706 12.7372 26.2884 14.4331 26.2994 16.523C26.3104 18.6129 24.6037 20.3198 22.5116 20.3308Z" fill="#1A1A1A"/>
<path d="M11.6327 20.3856C9.52958 20.3967 7.81183 18.7007 7.80083 16.6107C7.78984 14.5208 9.48552 12.8139 11.5886 12.803C12.5907 12.792 13.5486 13.1859 14.2643 13.8862C14.98 14.5863 15.3874 15.5275 15.4094 16.5231V16.6654C15.3984 17.6392 14.991 18.6021 14.2973 19.2914C13.6036 20.0027 12.6567 20.3856 11.6327 20.3856Z" fill="#1A1A1A"/>
<path d="M46.83 26.617C50.0536 26.617 52.6018 25.5491 54.3518 24.4814C55.4876 23.8102 56.0096 22.8646 56.0096 21.4917V16.3055C56.0096 14.9937 54.9659 13.9564 53.6457 13.9564H48.2425C47.1065 13.9564 46.1854 14.8715 46.1854 16.0004C46.1854 17.1293 47.1064 18.0138 48.2424 18.0138H51.4352V21.0646C50.238 21.9189 48.7029 22.3459 46.9837 22.3459C43.1768 22.3459 40.4751 19.4783 40.4751 15.5734V15.5123C40.4751 11.8818 43.2075 8.86169 46.6459 8.86169C48.6722 8.86169 50.0538 9.41094 51.3432 10.3261C51.6807 10.5701 52.1107 10.8143 52.786 10.8143C54.0754 10.8143 55.1193 9.77696 55.1193 8.49567C55.1193 7.58047 54.5973 6.93974 54.1368 6.60426C52.2027 5.26192 50.0536 4.5297 46.7993 4.5297C40.2908 4.5297 35.5322 9.50244 35.5322 15.5735V15.6345C35.5322 21.9493 40.1374 26.617 46.83 26.617ZM60.0375 24.1153C60.0375 25.3966 61.0813 26.4339 62.3707 26.4339C63.6601 26.4339 64.704 25.3966 64.704 24.1153V19.7833C64.704 16.4884 66.024 14.6885 68.388 14.1394C69.3398 13.9258 70.1379 13.1936 70.1379 11.9733C70.1379 10.6615 69.309 9.7157 67.866 9.7157C66.4846 9.7157 65.3793 11.1801 64.7038 12.7665V12.0344C64.7038 10.7531 63.6601 9.71591 62.3707 9.71591C61.0813 9.71591 60.0375 10.7531 60.0375 12.0344V24.1153ZM72.8081 6.05499C72.8081 7.39731 73.9438 8.25146 75.4172 8.25146C76.8913 8.25146 78.027 7.39724 78.027 6.05499V5.99393C78.027 4.65148 76.8913 3.8279 75.4172 3.8279C73.9438 3.8279 72.8081 4.65159 72.8081 5.99393V6.05499ZM73.0844 24.1153C73.0844 25.3966 74.1278 26.4339 75.4172 26.4339C76.7066 26.4339 77.7507 25.3966 77.7507 24.1153V12.0344C77.7507 10.7531 76.7066 9.71591 75.4172 9.71591C74.1278 9.71591 73.0844 10.7531 73.0844 12.0344V24.1153ZM98.7111 6.11593C98.7111 4.83465 97.667 3.79736 96.3776 3.79736C95.0882 3.79736 94.0448 4.83465 94.0448 6.11593V12.0344C92.9394 10.7225 91.4047 9.59367 88.9175 9.59367C85.019 9.59367 81.4264 12.5834 81.4264 18.0442V18.1053C81.4264 23.566 85.0803 26.5558 88.9175 26.5558C91.3426 26.5558 92.9084 25.427 94.0448 23.9016V24.1152C94.0448 25.3965 95.0882 26.4338 96.3776 26.4338C97.667 26.4338 98.7111 25.3965 98.7111 24.1152V6.11593ZM90.1146 13.5292C92.2944 13.5292 94.1062 15.3291 94.1062 18.0444V18.1054C94.1062 20.8205 92.2944 22.6206 90.1146 22.6206C87.9348 22.6206 86.0934 20.8206 86.0934 18.1054V18.0444C86.0934 15.2986 87.9348 13.5292 90.1146 13.5292ZM103.125 24.1153C103.125 25.3966 104.169 26.4339 105.458 26.4339C106.748 26.4339 107.792 25.3966 107.792 24.1153V6.11604C107.792 4.83476 106.748 3.79748 105.458 3.79748C104.169 3.79748 103.125 4.83476 103.125 6.11604V24.1153ZM115.981 16.7935C116.349 14.6885 117.608 13.3157 119.542 13.3157C121.506 13.3157 122.735 14.7189 123.011 16.7935H115.981ZM125.712 24.6339C126.05 24.3289 126.326 23.8713 126.326 23.2611C126.326 22.2239 125.559 21.4307 124.515 21.4307C124.024 21.4307 123.717 21.5526 123.38 21.7967C122.428 22.4984 121.354 22.895 120.063 22.895C117.976 22.895 116.503 21.7967 116.042 19.6918H125.283C126.511 19.6918 127.463 18.807 127.463 17.4647C127.463 14.0784 125.037 9.59367 119.542 9.59367C114.753 9.59367 111.406 13.4376 111.406 18.1053V18.1663C111.406 23.1696 115.059 26.6168 120.002 26.6168C122.397 26.617 124.27 25.8542 125.712 24.6339Z" fill="#1A1A1A"/>
</svg>
