<svg width="80" height="75" viewBox="0 0 80 75" fill="none" xmlns="http://www.w3.org/2000/svg">
<path d="M25.124 56.1773C25.124 56.1773 25.345 54.6768 22.2918 52.4488C19.2378 50.22 17.2627 47.5564 17.0864 44.7675C16.9097 41.9795 17.0248 39.35 17.3996 37.7874C17.774 36.2247 18.4404 34.9138 18.3504 34.5775C18.261 34.2416 18.1231 32.9129 17.8899 31.9646C17.6567 31.0163 17.8856 29.8352 17.9159 29.4276C17.9466 29.0205 18.6491 28.5367 18.9094 28.5656C19.1693 28.5953 19.2516 27.7975 19.198 27.6279C19.1437 27.4587 19.0088 27.4553 18.6867 27.747C18.365 28.0389 16.5948 28.4969 16.5948 28.4969L16.9064 27.0503L14.9515 27.9405L14.7275 27.747L15.3423 26.1207L13.8307 27.3188L13.4081 26.1207L13.6605 25.153L14.42 24.4329L12.7608 25.026L11.8308 24.9383C11.8308 24.9383 11.0054 24.9889 10.5002 25.4895C9.99465 25.9902 9.92577 26.7716 9.45259 27.0456C8.97926 27.3193 6.94227 27.2783 6.66926 27.0876C6.39593 26.8972 5.39815 25.6774 5.25069 25.0262C5.10291 24.3753 5.09529 24.2797 5.01894 23.705C4.94291 23.1306 5.18037 23.0873 5.35688 23.0439C5.5337 22.9999 6.98053 22.9481 7.19227 22.8793C7.40402 22.8111 7.41132 23.2259 7.68831 23.1965C7.96529 23.1667 9.8545 22.8992 10.1697 22.6253C10.4848 22.3507 11.4207 20.6398 11.6653 19.3575C11.9097 18.0752 12.205 15.2182 11.9054 14.7409C11.6058 14.2634 10.8978 12.5838 10.1894 11.9019C9.48132 11.2205 6.73815 8.73364 6.58085 8.21003C6.42355 7.68658 7.08307 6.93497 7.35688 7.03227C7.63085 7.12973 6.42989 6.97402 6.08148 7.15829C5.73307 7.3424 4.99259 7.92571 5.01894 8.07949C5.04513 8.23245 5.15196 7.84148 4.47783 7.90409C3.80386 7.9667 2.93624 9.15817 2.89355 9.30581C2.85069 9.45378 2.46323 9.46153 2.33482 9.18124C2.20656 8.90048 2.43291 8.04415 2.30243 7.02372C2.17148 6.00328 2.11323 5.67702 2.62545 5.03174C3.13751 4.38663 5.18577 3.06591 5.9145 2.80499C6.64338 2.54439 5.11434 2.53245 4.64767 2.5168C4.18085 2.50099 2.75021 2.0458 2.7045 2.24637C2.65863 2.4471 2.62116 1.71824 2.97767 1.48007C3.33418 1.24191 5.46386 0.394774 6.58085 0.782681C7.69767 1.1701 7.66164 0.910153 8.2637 1.0444C8.8664 1.17833 10.2293 2.13664 10.2942 2.21522C10.3596 2.29397 9.58751 1.69855 9.5718 1.53526C9.55561 1.37196 13.3756 0.689738 14.172 0.682799C14.9683 0.675377 24.0766 3.59081 24.2851 3.67552C24.4935 3.7604 27.0667 5.8537 27.5388 5.89227C28.0105 5.93083 27.7318 6.47477 28.5043 6.65533C29.2769 6.83589 31.5137 6.80443 32.1816 6.80362C32.8497 6.80346 35.601 7.06567 35.7732 7.22735C35.9458 7.38871 36.778 8.11918 36.1223 8.84401C35.4669 9.56851 35.3924 10.4678 34.4915 10.7298C33.5902 10.9915 32.7853 11.2534 32.528 11.2858C32.2702 11.3188 32.1742 12.3085 33.3054 12.7415C34.4372 13.1744 36.1912 15.739 36.9548 16.423C37.7185 17.1065 38.7678 18.6014 39.1659 18.6478C39.5631 18.6945 41.1732 18.6641 41.3289 18.2883C41.4848 17.912 41.1523 54.6081 41.1523 54.6081L25.124 56.1773Z" fill="#F39200"/>
<path d="M22.2345 72.0959C22.2345 73.0004 22.2345 73.7453 22.2808 74.1408C22.3084 74.4143 22.3642 74.6216 22.6424 74.6594C22.7724 74.6781 22.9761 74.697 23.0599 74.697C23.1148 74.697 23.1335 74.7252 23.1335 74.7541C23.1335 74.8007 23.0872 74.8288 22.985 74.8288C22.4753 74.8288 21.8913 74.8007 21.8446 74.8007C21.7984 74.8007 21.214 74.8288 20.9364 74.8288C20.8345 74.8288 20.788 74.8101 20.788 74.7541C20.788 74.7252 20.8067 74.697 20.8619 74.697C20.9457 74.697 21.057 74.6781 21.1403 74.6594C21.3253 74.6218 21.3721 74.4143 21.4091 74.1408C21.4549 73.7453 21.4549 73.0006 21.4549 72.0959V68.1093L20.0835 68.1285C19.5084 68.1377 19.2857 68.2036 19.1375 68.4298C19.0359 68.59 19.0078 68.656 18.9799 68.722C18.9519 68.7972 18.9246 68.8166 18.8872 68.8166C18.8599 68.8166 18.8408 68.7878 18.8408 68.7314C18.8408 68.6373 19.0262 67.8268 19.0451 67.7518C19.0637 67.695 19.1011 67.5728 19.1376 67.5728C19.2026 67.5728 19.2957 67.6667 19.5456 67.6856C19.8143 67.7138 20.1669 67.7326 20.2783 67.7326H23.7551C24.3484 67.7326 24.5983 67.638 24.6724 67.638C24.7191 67.638 24.7191 67.6951 24.7191 67.7518C24.7191 68.0341 24.6907 68.6849 24.6907 68.788C24.6907 68.8727 24.6635 68.9103 24.6257 68.9103C24.5794 68.9103 24.5608 68.8826 24.5521 68.7506L24.5429 68.6467C24.5056 68.3641 24.2923 68.1476 23.4023 68.1287L22.2343 68.1095V72.0959H22.2345Z" fill="black"/>
<path d="M26.6657 70.4374C26.6473 68.9673 26.6657 68.7031 26.6473 68.4015C26.6286 68.0814 26.5543 67.9304 26.2484 67.8644C26.1743 67.8457 26.0164 67.8363 25.9333 67.8363C25.896 67.8363 25.8594 67.8173 25.8594 67.7797C25.8594 67.7232 25.9056 67.7038 26.0076 67.7038C26.4246 67.7038 27.0089 67.7324 27.0549 67.7324C27.1013 67.7324 27.6856 67.7038 27.9635 67.7038C28.0656 67.7038 28.1119 67.7232 28.1119 67.7797C28.1119 67.8171 28.0748 67.8363 28.0375 67.8363C27.9726 67.8363 27.9172 67.8457 27.8059 67.8644C27.5559 67.9115 27.4814 68.0722 27.4629 68.4015C27.4445 68.7031 27.4445 70.1639 27.4445 73.2739C27.4445 73.3495 27.4908 73.3587 27.5278 73.3115C28.8448 71.7565 30.1424 70.1829 32.0429 67.6854C32.1632 67.4871 32.3114 67.5249 32.2652 67.8363V70.4374V72.0959C32.2652 73.0004 32.2652 73.7453 32.3114 74.1408C32.3395 74.4143 32.3951 74.6216 32.6738 74.6594C32.8035 74.6781 33.007 74.697 33.0908 74.697C33.146 74.697 33.1645 74.7252 33.1645 74.7536C33.1645 74.8007 33.1181 74.8294 33.0162 74.8294C32.5062 74.8294 31.9222 74.8007 31.8759 74.8007C31.8297 74.8007 31.2452 74.8294 30.9676 74.8294C30.8654 74.8294 30.8191 74.8101 30.8191 74.7536C30.8191 74.7252 30.8376 74.697 30.8933 74.697C30.9767 74.697 31.0879 74.6781 31.1714 74.6594C31.3567 74.6218 31.403 74.4143 31.44 74.1408C31.4864 73.7453 31.4864 73.0006 31.4864 72.0959V69.3723C31.4864 69.2593 31.44 69.2025 31.3567 69.3063C30.1332 70.7575 28.9184 72.237 27.7689 73.7641L26.9994 74.7723L26.8881 74.923C26.7675 75.1213 26.6194 75.0834 26.6657 74.7723V70.4374Z" fill="black"/>
<path d="M36.3061 68.1847V72.0959C36.3061 73.0004 36.3154 73.9242 36.3621 74.2351C36.3988 74.4991 36.51 74.631 36.7145 74.6594C36.8442 74.6781 37.0477 74.697 37.1315 74.697C37.1867 74.697 37.2051 74.7252 37.2051 74.7536C37.2051 74.8007 37.1588 74.8288 37.0569 74.8288C36.5472 74.8288 35.9629 74.8007 35.9165 74.8007C35.8704 74.8007 35.3234 74.8288 35.0453 74.8288C34.9432 74.8288 34.897 74.8101 34.897 74.7536C34.897 74.7252 34.915 74.697 34.971 74.697C35.0543 74.697 35.1659 74.6881 35.2492 74.6594C35.3975 74.6122 35.444 74.5275 35.4996 74.2539C35.5459 74.0089 35.5645 73.2457 35.5645 72.0959V70.4374C35.5645 68.854 35.5553 68.4582 35.5367 68.2981C35.5091 68.0717 35.4534 67.9307 35.1475 67.8645C35.0732 67.8455 34.9151 67.8362 34.8323 67.8362C34.795 67.8362 34.7578 67.8171 34.7578 67.7795C34.7578 67.723 34.804 67.7037 34.9064 67.7037C35.3235 67.7037 35.9077 67.7322 35.954 67.7322C36.1392 67.7322 38.1045 67.723 38.2342 67.7135C38.3831 67.7037 38.6053 67.6854 38.6426 67.6759C38.6978 67.6572 38.7353 67.6194 38.7723 67.6194C38.8092 67.6194 38.8275 67.6759 38.8275 67.7232C38.8275 67.789 38.7816 67.9021 38.7538 68.1661C38.7442 68.2604 38.7262 68.6747 38.7075 68.7878C38.6978 68.8351 38.6799 68.8824 38.6331 68.8824C38.5867 68.8824 38.5681 68.8443 38.5681 68.7783C38.5681 68.703 38.5402 68.5429 38.4851 68.4203C38.4296 68.298 38.2069 68.1096 37.6602 68.1096L36.3897 68.0811C36.334 68.0812 36.3061 68.1098 36.3061 68.1847Z" fill="black"/>
<path d="M41.0524 70.4374C41.0524 68.9673 41.0524 68.7031 41.0339 68.4016C41.0156 68.0814 40.9409 67.9304 40.6348 67.8644C40.5604 67.8457 40.4031 67.8363 40.3196 67.8363C40.2826 67.8363 40.2461 67.8173 40.2461 67.7797C40.2461 67.7232 40.2923 67.7039 40.3937 67.7039C40.8113 67.7039 41.3677 67.7324 41.4416 67.7324C41.6459 67.7324 42.1832 67.7039 42.6099 67.7039C43.7688 67.7039 44.1858 68.0998 44.3343 68.241C44.5377 68.4393 44.7975 68.8635 44.7975 69.3626C44.7975 70.7009 43.8336 71.6062 42.517 71.6062C42.4709 71.6062 42.3688 71.6062 42.3226 71.596C42.2758 71.596 42.2201 71.5773 42.2201 71.5302C42.2201 71.4551 42.2758 71.4454 42.4707 71.4454C43.3697 71.4454 44.0745 70.7764 44.0745 69.9093C44.0745 69.5985 44.0469 68.967 43.5551 68.458C43.0642 67.949 42.4988 67.9867 42.2855 67.9867C42.1277 67.9867 41.9702 68.0054 41.8867 68.0432C41.8309 68.0619 41.8124 68.1279 41.8124 68.2221V72.0957C41.8124 73.0003 41.8124 73.7451 41.8588 74.1406C41.8867 74.4141 41.9421 74.6215 42.2201 74.6592C42.3502 74.678 42.5542 74.6968 42.6374 74.6968C42.6931 74.6968 42.7116 74.7251 42.7116 74.7535C42.7116 74.8006 42.6655 74.8293 42.5634 74.8293C42.0534 74.8293 41.4693 74.8006 41.4229 74.8006C41.3951 74.8006 40.8112 74.8293 40.5332 74.8293C40.4307 74.8293 40.3843 74.8099 40.3843 74.7535C40.3843 74.7251 40.4031 74.6968 40.4586 74.6968C40.5418 74.6968 40.6536 74.678 40.737 74.6592C40.9228 74.6216 40.9691 74.4141 41.0061 74.1406C41.0524 73.7451 41.0524 73.0005 41.0524 72.0957V70.4374Z" fill="black"/>
<path d="M47.0038 70.4374C46.9852 68.9673 47.0038 68.7031 46.9852 68.4015C46.9666 68.0814 46.8922 67.9304 46.5865 67.8644C46.512 67.8457 46.3542 67.8363 46.2709 67.8363C46.2344 67.8363 46.1973 67.8173 46.1973 67.7797C46.1973 67.7232 46.2431 67.7038 46.3455 67.7038C46.7627 67.7038 47.3466 67.7324 47.393 67.7324C47.4393 67.7324 48.0236 67.7038 48.3017 67.7038C48.4038 67.7038 48.4501 67.7232 48.4501 67.7797C48.4501 67.8171 48.4127 67.8363 48.3755 67.8363C48.3108 67.8363 48.2555 67.8457 48.1439 67.8644C47.8938 67.9115 47.8196 68.0722 47.8011 68.4015C47.7825 68.7031 47.7825 70.1639 47.7825 73.2739C47.7825 73.3495 47.8289 73.3587 47.8658 73.3115C49.1825 71.7565 50.4804 70.1829 52.3808 67.6854C52.5012 67.4871 52.6496 67.5249 52.6031 67.8363V70.4374V72.0959C52.6031 73.0004 52.6031 73.7453 52.6496 74.1408C52.6773 74.4143 52.7328 74.6216 53.0114 74.6594C53.1409 74.6781 53.3447 74.697 53.4287 74.697C53.4839 74.697 53.5023 74.7252 53.5023 74.7536C53.5023 74.8007 53.456 74.8294 53.3538 74.8294C52.8439 74.8294 52.2598 74.8007 52.2139 74.8007C52.1674 74.8007 51.583 74.8294 51.305 74.8294C51.2031 74.8294 51.1568 74.8101 51.1568 74.7536C51.1568 74.7252 51.1752 74.697 51.2311 74.697C51.3144 74.697 51.4258 74.6781 51.5092 74.6594C51.6944 74.6218 51.7408 74.4143 51.7779 74.1408C51.8241 73.7453 51.8241 73.0006 51.8241 72.0959V69.3723C51.8241 69.2593 51.7779 69.2025 51.6944 69.3063C50.4708 70.7575 49.2562 72.237 48.1065 73.7641L47.3373 74.7723L47.226 74.923C47.1054 75.1213 46.9573 75.0834 47.0038 74.7723V70.4374Z" fill="black"/>
<path d="M54.8457 71.1534C54.8457 69.6456 55.7633 67.572 58.7114 67.572C59.8148 67.572 60.6491 67.8266 61.0016 67.8266C61.1035 67.8266 61.1219 67.8739 61.1219 67.9304C61.1219 68.0342 61.0572 68.4863 61.0572 69.0331C61.0572 69.4857 61.0386 69.6266 60.9648 69.6266C60.8999 69.6266 60.89 69.5608 60.89 69.4288C60.89 68.3265 59.8056 67.9304 58.6467 67.9304C56.2641 67.9304 55.6802 69.4105 55.6802 71.0782C55.6802 72.8783 57.0424 74.5276 59.027 74.5276C59.7222 74.5276 60.2692 74.4428 60.6399 74.0562C60.8346 73.8489 60.9548 73.4343 60.9832 73.2647C61.0016 73.161 61.0202 73.1234 61.0759 73.1234C61.1219 73.1234 61.1408 73.1896 61.1408 73.2647C61.1408 73.3306 61.0295 74.1505 60.9368 74.4712C60.881 74.6499 60.8626 74.6692 60.6959 74.7447C60.3248 74.8954 59.6203 74.9613 59.0268 74.9613C56.199 74.9611 54.8457 73.3304 54.8457 71.1534Z" fill="black"/>
<path d="M54.8705 56.1773C54.8705 56.1773 54.6494 54.6768 57.7029 52.4488C60.7562 50.22 62.7318 47.5564 62.9083 44.7675C63.0848 41.9795 62.9699 39.35 62.5951 37.7874C62.2202 36.2247 61.554 34.9138 61.6442 34.5775C61.7337 34.2416 61.8718 32.9129 62.1048 31.9646C62.3378 31.0163 62.1088 29.8352 62.0788 29.4276C62.0481 29.0205 61.3456 28.5367 61.0853 28.5656C60.8253 28.5953 60.7431 27.7975 60.7969 27.6279C60.8505 27.4587 60.9859 27.4553 61.3081 27.747C61.6299 28.0389 63.4002 28.4969 63.4002 28.4969L63.0883 27.0503L65.0432 27.9405L65.2673 27.747L64.6521 26.1207L66.1639 27.3188L66.5867 26.1207L66.3343 25.153L65.5745 24.4329L67.234 25.026L68.164 24.9383C68.164 24.9383 68.9893 24.9889 69.4943 25.4895C69.9997 25.9902 70.0689 26.7716 70.542 27.0456C71.0153 27.3193 73.0521 27.2783 73.3251 27.0876C73.5988 26.8972 74.5964 25.6774 74.7442 25.0262C74.8918 24.3753 74.8993 24.2797 74.9759 23.705C75.052 23.1306 74.8142 23.0873 74.6378 23.0439C74.4608 22.9999 73.014 22.9481 72.8024 22.8793C72.5908 22.8111 72.5832 23.2259 72.3062 23.1965C72.0294 23.1667 70.1402 22.8992 69.8251 22.6253C69.5099 22.3507 68.5739 20.6398 68.3296 19.3575C68.0851 18.0752 67.7899 15.2182 68.0893 14.7409C68.3891 14.2634 69.097 12.5838 69.8054 11.9019C70.5137 11.2205 73.2567 8.73364 73.4137 8.21003C73.5715 7.68658 72.9118 6.93497 72.6378 7.03227C72.364 7.12973 73.5646 6.97402 73.9132 7.15829C74.2616 7.3424 75.0021 7.92571 74.9758 8.07949C74.9491 8.23245 74.8426 7.84148 75.5162 7.90409C76.1905 7.9667 77.058 9.15817 77.101 9.30581C77.144 9.45378 77.5315 9.46153 77.6597 9.18124C77.788 8.90048 77.5618 8.04415 77.6923 7.02372C77.8231 6.00328 77.881 5.67702 77.3694 5.03174C76.857 4.38663 74.8088 3.06591 74.0799 2.80499C73.3508 2.54439 74.8801 2.53245 75.3469 2.5168C75.8137 2.50099 77.2439 2.0458 77.2901 2.24637C77.3361 2.4471 77.3732 1.71824 77.0169 1.48007C76.6604 1.24191 74.5304 0.394774 73.4134 0.782681C72.2966 1.1701 72.3327 0.910153 71.7302 1.0444C71.128 1.17833 69.7651 2.13664 69.7001 2.21522C69.635 2.29397 70.4067 1.69855 70.4227 1.53526C70.4389 1.37196 66.6188 0.689738 65.8224 0.682799C65.0259 0.675377 55.918 3.59081 55.7093 3.67552C55.5007 3.7604 52.9278 5.8537 52.4559 5.89227C51.9835 5.93083 52.2627 6.47477 51.4902 6.65533C50.7178 6.83589 48.4808 6.80443 47.8131 6.80362C47.145 6.80346 44.3939 7.06567 44.2213 7.22735C44.0485 7.38871 43.2167 8.11918 43.8721 8.84401C44.5277 9.56851 44.6024 10.4678 45.5034 10.7298C46.4045 10.9915 47.2096 11.2534 47.4667 11.2858C47.7243 11.3188 47.8205 12.3085 46.6889 12.7415C45.5575 13.1744 43.8035 15.739 43.04 16.423C42.2761 17.1065 41.2267 18.6014 40.8289 18.6478C40.4316 18.6945 38.8213 18.6641 38.6654 18.2883C38.5099 17.912 38.8426 54.6081 38.8426 54.6081L54.8705 56.1773Z" fill="#F39200"/>
<path d="M33.5772 31.2701C35.2777 27.8119 40.5926 20.6806 40.5926 20.6806C39.4589 20.8249 39.5293 19.1684 39.5293 19.1684C40.8048 19.2402 42.2219 17.9435 43.8046 15.7101C45.3872 13.4772 47.5862 11.9651 47.5862 11.9651C44.6969 11.7392 43.941 10.3386 43.8077 8.6213C43.6747 6.90428 47.6748 6.72372 49.5416 7.08532C51.4086 7.44709 52.4312 5.91063 53.5869 5.14256C54.7421 4.37401 61.8104 1.79824 64.6993 1.21138C67.5886 0.623549 70.6997 1.93427 70.6997 1.93427C70.6997 1.93427 72.8777 0.262268 75.9899 1.39178C79.1012 2.52161 77.5007 5.14256 77.5007 5.14256C78.7654 9.10166 77.3697 10.0674 77.3697 10.0674C77.3697 10.0674 77.3991 12.375 77.0394 12.8047C76.4361 13.525 75.8108 11.1238 75.8108 11.1238C76.8501 13.5731 77.2754 12.6125 77.1337 10.6917C76.9923 8.77039 75.1493 8.48269 75.1493 8.48269C76.85 7.85839 77.1337 9.77921 77.1337 9.77921C77.6059 9.20284 77.7955 8.05025 76.8975 7.76206C76.0001 7.47388 75.3862 8.19451 75.3862 8.19451C75.5748 7.18601 77.4645 7.42595 77.4645 7.42595C76.1418 6.17768 73.6381 6.75357 73.6381 6.75357C75.4805 5.88933 77.3699 6.56155 77.3699 6.56155C76.2362 5.26504 73.0235 5.88933 73.0235 5.88933C75.2916 4.92893 77.3226 5.79333 77.3226 5.79333C77.3226 5.79333 76.5193 4.83292 74.7718 4.11277C73.0235 3.39214 73.2129 2.9121 73.2129 2.9121C73.7327 3.29614 74.7718 3.39231 74.7718 3.39231C75.5274 2.28797 77.3226 2.72008 77.3226 2.72008C77.3226 2.72008 76.657 1.69449 74.7247 1.42324C72.7923 1.15232 70.3312 4.01644 70.3312 4.01644C70.8507 2.9121 72.5986 1.61558 72.5986 1.61558C71.0869 1.66351 69.1031 3.68033 69.1031 3.68033C69.5753 2.672 70.2367 2.19196 70.2367 2.19196C69.0554 1.23091 66.457 1.27947 66.457 1.27947C67.355 1.85536 67.1654 2.33573 67.1654 2.33573C65.9847 1.03889 64.7097 1.47133 64.7097 1.47133C65.8428 2.09563 65.607 2.71992 65.607 2.71992C64.5677 0.79911 62.5837 2.04754 62.7723 2.33573C62.9618 2.62391 64.6148 2.71992 64.6148 2.71992C64.1426 3.584 61.7332 3.87251 61.7332 3.87251C62.1112 3.20029 63.1504 2.96035 63.1504 2.96035C61.4496 2.76817 62.2999 2.14387 62.2999 2.14387C60.9302 2.52823 58.4264 3.44071 58.4264 3.44071C59.025 3.53059 59.3242 3.969 59.3242 3.969C58.0959 3.34438 55.5918 4.54489 55.5918 4.54489C55.4027 6.85023 54.6939 8.72312 53.5602 10.3075C52.427 11.8925 52.6156 12.7571 52.6156 12.7571C52.0015 11.7483 52.6624 10.4518 52.6624 10.4518C51.671 10.3559 50.6789 11.3642 50.6789 11.3642C50.7735 10.2596 52.5208 9.82746 52.5208 9.82746C50.9153 10.1156 46.805 8.19483 45.6716 8.77072C44.5373 9.34741 45.9547 10.5002 45.9547 10.5002C45.7661 10.4522 44.3356 9.66819 45.0575 8.72295C45.7796 7.77723 51.1515 9.68336 52.8518 8.96322C54.5526 8.24259 55.2139 4.73707 55.2139 4.73707C55.2139 4.73707 54.1927 4.81743 52.9466 6.60948C51.6999 8.40201 48.8837 7.52245 48.8837 7.52245C50.7264 8.67503 52.5208 7.90648 52.5208 7.90648C51.7651 9.53911 46.7578 7.52245 45.1513 7.76222C43.5456 8.00281 43.9516 9.52039 45.0573 10.6439C46.1624 11.7676 48.5289 11.0998 48.5289 11.0998C48.5289 11.0998 49.9432 12.8763 43.71 20.9117C36.5121 30.1908 36.5375 34.2883 39.1262 37.906C42.0005 41.9238 41.5848 44.0922 41.5848 44.0922C41.5848 44.0922 41.5139 41.7153 37.9002 37.393C34.2861 33.0705 39.6007 25.7231 39.6007 25.7231C34.9243 31.2699 34.5951 34.0322 38.1127 39.3377C41.6304 44.643 41.0888 48.2707 41.0888 48.2707C39.9348 40.428 35.7285 39.1126 34.7115 34.6557C33.9104 31.1472 38.4302 25.6873 41.1596 22.8419C46.1545 17.6342 47.5388 12.7434 47.5388 12.7434C47.5388 12.7434 46.018 13.2429 44.0648 16.1426C42.112 19.0419 40.1675 19.6002 40.1675 19.6002C40.805 20.3924 41.7264 20.1042 41.7264 20.1042C40.734 21.3291 34.1393 30.2172 31.168 36.5288C28.1969 42.84 29.5381 48.2709 33.6481 49.2789C37.7583 50.2877 38.8212 53.3132 38.8212 53.3132C37.3329 50.8636 30.8813 52.405 29.255 45.821C27.9696 40.6184 31.8764 34.7275 33.5772 31.2701ZM75.4329 3.72809C75.6694 3.96868 77.0888 3.19803 77.3224 3.53624C77.6312 3.98239 77.2267 4.18329 76.8974 4.49664C76.4488 4.92344 77.2753 4.92876 77.2753 4.92876C78.1223 3.88268 77.5115 2.96003 77.5115 2.96003C75.7166 2.43174 75.1962 3.48815 75.4329 3.72809ZM75.6618 4.9286C75.6618 4.9286 73.3129 4.17457 71.2304 5.79962C71.2304 5.79978 72.7804 3.34406 75.6618 4.9286ZM70.4556 6.11959C70.4556 6.11959 70.4556 3.54334 73.0705 3.87138C73.0705 3.87138 70.8669 4.37208 70.4556 6.11959ZM69.4383 6.8336C69.6323 5.23341 68.7842 4.39612 68.7842 4.39612C70.068 4.83873 69.4383 6.8336 69.4383 6.8336ZM68.1793 4.6672C68.954 4.96233 68.4693 6.36518 68.4693 6.36518C68.4694 5.52886 68.1793 4.6672 68.1793 4.6672ZM67.3801 6.11959C67.3801 6.11959 67.7193 5.4059 67.7193 4.66736C67.7193 4.6672 68.1793 5.62713 67.3801 6.11959ZM65.2489 6.36534C66.362 6.29935 67.2829 5.09819 67.2829 5.09819C67.2829 5.09819 66.7989 6.2916 65.1518 7.12889C65.1518 7.12889 63.501 6.48604 63.4808 4.98088C63.481 4.98104 64.1355 6.43231 65.2489 6.36534ZM65.8409 4.28704C65.8409 4.28704 66.1834 3.31243 68.1793 3.33777C68.1793 3.33777 67.5499 4.6672 66.3626 4.76595C65.1764 4.86406 65.1278 3.85428 64.3289 3.84234C64.3291 3.84234 65.0645 3.47476 65.8409 4.28704ZM62.7791 5.39332C62.7791 5.39332 61.8104 4.2609 60.2847 4.98105C58.7588 5.70119 57.8426 5.75395 57.5239 4.66736C57.5239 4.66736 58.202 5.14725 59.0494 4.98105C59.8972 4.81485 61.4953 3.63225 62.682 4.39612C62.682 4.39612 63.4809 3.68921 64.1345 4.05517C64.1347 4.05501 62.9242 4.34739 62.7791 5.39332ZM69.0024 6.05489C69.0024 6.05489 69.8986 9.51684 67.1867 9.46746C67.1867 9.46746 67.5016 8.11383 66.1205 8.92611C64.7405 9.73871 62.5854 12.0771 62.7305 14.9574C62.7305 14.9574 61.7235 14.0215 62.7237 11.6831C62.7237 11.6831 61.4712 8.4338 60.018 7.42418C58.6183 6.45167 58.008 7.49808 57.1846 5.89789C57.1846 5.89789 57.8142 6.51347 58.7831 6.36518C59.752 6.21802 60.7447 6.19349 61.5197 7.76916C62.2945 9.34467 62.5627 10.3285 63.1646 11.0923C63.1646 11.0923 63.9896 10.1077 65.2248 8.90158C66.6783 7.48178 67.7297 8.13819 67.6156 8.95079C67.6156 8.95079 69.2448 9.16589 69.0024 6.05489ZM67.8512 10.9199C67.721 12.0003 66.634 13.4411 66.254 11.8924C65.8734 10.3435 66.5988 9.4431 66.5988 9.4431C66.5988 9.4431 66.1493 11.2093 66.6697 11.8201C67.1899 12.4315 67.8512 10.9199 67.8512 10.9199ZM65.855 17.7632C65.855 17.7632 64.1894 17.619 63.7997 15.314C63.4101 13.0088 64.7918 11.8924 64.7918 11.8924C64.7918 11.8924 64.3315 12.4315 64.1347 14.828C63.9389 17.2241 65.855 17.7632 65.855 17.7632ZM58.9813 18.8079C59.5127 23.7424 57.6558 24.4264 57.1846 24.2463C57.1846 24.2463 58.6627 25.507 60.2567 25.0749C60.2567 25.0749 56.5369 27.0199 54.5878 22.5898C54.5878 22.5898 56.4188 24.6407 57.741 22.8055C59.0635 20.9707 58.6977 15.9562 55.1904 11.0068C55.1902 11.0068 58.4494 13.8732 58.9813 18.8079ZM61.1073 22.1933C61.1073 22.1933 63.5667 18.1583 62.241 17.1507C60.9153 16.1432 60.2567 19.0236 60.2567 19.0236C60.2567 19.0236 59.7964 16.7314 60.115 15.3743C60.434 14.0173 60.3274 10.9084 58.6627 10.4277C56.997 9.94686 55.5796 6.37099 55.7569 5.09803C55.7569 5.09803 57.1448 8.91804 58.8751 9.44294C61.2491 10.1636 61.1896 14.5215 60.8297 17.0788C60.8297 17.0788 61.7096 15.7038 62.7721 15.602C62.7721 15.602 63.977 17.3669 62.3469 21.0049C62.3469 21.0049 66.2835 21.509 67.3801 25.6511C67.3801 25.6513 64.4729 21.5815 61.1073 22.1933ZM65.0748 25.5001C61.7805 22.7199 60.0442 23.8865 60.0442 23.8865C61.9929 21.1849 65.0748 25.5001 65.0748 25.5001ZM75.1024 11.4962C75.5985 11.9642 75.658 10.7159 75.658 10.7159C75.7569 11.2356 75.7624 11.6918 75.5154 11.8177C75.2689 11.9438 74.1812 12.2887 72.4807 15.3745C70.7799 18.4602 72.162 20.3924 72.162 20.3924C71.0635 19.8883 71.24 18.8079 71.2305 17.7634C71.2205 16.7184 69.5932 15.2422 69.5932 15.2422C69.5932 15.2422 69.2605 15.3592 69.1888 16.3944C69.1174 17.4302 70.9216 19.9243 71.7634 20.5009C72.6048 21.0769 72.9054 21.7253 73.0707 22.0852C73.2366 22.4456 73.9688 22.5174 74.3585 22.6976C74.7481 22.878 74.8899 23.6698 74.8899 23.6698C74.4647 23.1655 73.6147 23.8503 71.9139 22.9969C70.2131 22.1438 69.0318 19.0304 68.9732 16.7549C68.914 14.4791 72.1621 11.208 72.1621 11.208C72.1621 11.208 72.0908 11.6042 72.3391 11.8924C72.5872 12.1806 72.6934 11.6402 73.0707 11.007C73.4489 10.3737 73.0707 10.428 73.0707 10.428C71.7481 10.7645 69.6462 13.225 68.7843 15.2422C67.9232 17.259 69.495 21.5992 70.9216 22.6978C71.6562 23.2632 72.3391 23.6699 72.3391 23.6699C70.2839 23.4542 69.5967 23.3398 69.0343 21.9595C68.4694 20.5731 67.5205 17.4216 68.258 14.5761C68.9954 11.7307 73.0378 9.64141 73.0378 8.34489C73.0378 7.04789 70.4558 7.67864 70.4558 7.67864C72.1694 7.01029 73.4596 7.2086 74.642 8.03815C75.7308 8.80267 75.662 10.596 75.662 10.596C75.4566 9.22607 74.9815 8.70634 74.9815 8.70634C74.592 9.8586 73.6496 9.8757 73.6496 9.8757C74.7837 10.1274 74.6064 11.0278 75.1024 11.4962ZM75.8821 20.5727C76.0237 20.9691 74.8193 22.7341 74.8193 22.7341C75.1851 21.9984 75.8821 20.5727 75.3796 20.8967C74.877 21.2212 73.4462 22.0852 73.4462 22.0852C74.1994 21.5449 75.7404 20.1765 75.8821 20.5727ZM74.2873 20.1041C73.9486 20.4026 73.5435 20.969 72.8353 21.1847C72.8353 21.1847 73.5362 20.6914 73.8624 20.2482C74.2162 19.766 74.698 19.492 74.6704 20.1039C74.642 20.7166 74.2837 21.3223 74.2837 21.3223C74.2837 21.3223 74.6712 19.7662 74.2873 20.1041ZM70.0943 26.5399C71.3115 28.0366 74.4881 28.0284 75.0081 23.9943C75.0081 23.9943 75.0097 27.9298 71.9097 27.9326C69.5929 27.9347 70.3745 25.6808 67.6155 25.5002C67.6156 25.5001 68.8093 24.9581 70.0943 26.5399ZM51.5762 50.0232C55.4024 49.4948 58.237 47.9104 59.7018 42.7719C59.7018 42.7719 58.2847 49.9271 53.7491 50.5518C49.2139 51.1758 46.8994 52.4715 46.2854 53.313C46.2854 53.313 47.7493 50.5518 51.5762 50.0232ZM61.5713 47.2328C62.6145 43.1923 62.725 39.8904 61.7802 35.1839C61.7802 35.1839 64.1513 41.4807 62.5862 46.8549C60.5178 53.9567 56.5029 52.2637 54.7408 56.6507C54.9835 52.6958 60.1362 52.7925 61.5713 47.2328ZM52.9934 42.1952C59.9124 38.6208 61.7935 36.6198 62.111 29.9015C62.111 29.9015 63.1502 37.3932 57.3869 40.8508C51.6232 44.3087 45.8597 47.3343 44.2539 50.2635C44.2539 50.2635 46.0748 45.7701 52.9934 42.1952ZM47.1829 37.8253C52.7096 35.5201 59.0874 32.4948 61.8274 29.9015C61.8274 29.9015 58.6626 35.4244 51.1507 39.0737C43.64 42.7242 41.9858 48.6309 41.9858 48.6309C41.9858 48.6309 42.9226 42.8095 50.1591 38.8822C57.3953 34.9541 59.0873 32.3991 59.0873 32.3991C59.0873 32.3991 54.127 36.3845 49.4978 37.8255C44.8677 39.2659 42.6477 42.5801 41.9858 46.6615C41.9858 46.6612 41.6556 40.1306 47.1829 37.8253ZM58.4732 29.9013C58.4732 29.9013 48.6473 33.5035 45.5289 35.8561C42.411 38.209 40.6639 37.3451 40.9469 33.6952C40.9469 33.6952 41.0412 37.9692 43.9705 36.2401C46.8994 34.5113 50.6313 32.0143 58.4732 29.9013ZM50.8678 30.6218C47.5605 32.1106 45.7654 29.7093 44.2539 24.9068C44.2539 24.9068 46.2113 30.7659 49.6953 30.1895C53.1788 29.6136 57.4104 27.4524 60.044 26.7797C60.044 26.7795 54.174 29.1327 50.8678 30.6218ZM43.0723 23.6698C43.0723 23.6698 42.1285 30.8775 44.7262 33.5349C44.7262 33.5351 41.3243 32.894 43.0723 23.6698ZM64.4728 29.6134C64.4728 29.6134 63.5799 29.2767 62.1842 28.9407C60.7881 28.6045 60.8829 27.9324 60.8829 27.9324C60.8829 27.9324 60.444 28.8928 61.561 29.2767C61.561 29.2767 60.3078 29.6134 58.7293 29.2767C57.1504 28.9407 54.3632 29.5652 51.1507 31.5341C51.1507 31.5341 53.8912 29.2291 56.5362 28.8442C59.1821 28.4605 59.304 29.2817 60.5047 29.0369C60.5047 29.0369 59.8434 28.1092 60.9772 27.1559C60.9772 27.1559 61.242 28.5088 63.1648 28.7965C63.1648 28.7965 63.1978 27.9648 62.5599 27.1559C62.5599 27.1559 63.741 28.0765 65.0748 28.2204C65.0748 28.2204 64.3094 27.0198 64.7931 26.3953C64.7931 26.3953 65.5947 27.1634 66.1435 27.5479C66.1435 27.5479 66.9769 26.2996 65.607 24.9064C65.607 24.9064 67.3078 25.8673 66.6932 27.9321C66.6932 27.9321 65.9145 27.8206 65.075 27.1558C65.075 27.1558 65.0677 28.2643 65.9513 28.6025C65.9513 28.6025 65.0872 28.9467 63.4807 27.9829C63.4805 27.9832 64.4728 28.9407 64.4728 29.6134ZM53.5154 26.876C53.5154 26.876 49.9462 27.1561 47.75 24.5707C44.9515 21.2768 48.5591 21.643 50.3542 20.5018C52.7147 19.0005 52.9934 15.3403 52.9934 15.3403C52.9934 15.3403 53.2705 20.0331 49.6954 21.6176C46.1196 23.202 50.7069 26.9478 53.5154 26.876Z" fill="black"/>
<path d="M46.4748 30.9389C44.774 27.4806 39.4596 20.3494 39.4596 20.3494C40.5934 20.4936 40.5228 18.8371 40.5228 18.8371C39.2472 18.9089 37.8299 17.6122 36.2475 15.3789C34.6653 13.146 32.4662 11.6339 32.4662 11.6339C35.3558 11.408 36.1112 10.0074 36.2442 8.29006C36.3777 6.57304 32.3772 6.39248 30.5105 6.75409C28.6432 7.11585 27.621 5.57939 26.4653 4.81133C25.3097 4.04277 18.2421 1.467 15.3529 0.880141C12.4643 0.292311 9.35275 1.60303 9.35275 1.60303C9.35275 1.60303 7.17466 -0.0689694 4.06291 1.06054C0.951164 2.19038 2.5518 4.81133 2.5518 4.81133C1.28672 8.77043 2.68228 9.73616 2.68228 9.73616C2.68228 9.73616 2.65339 12.0438 3.01291 12.4735C3.6164 13.1938 4.24148 10.7926 4.24148 10.7926C3.20227 13.2418 2.77704 12.2813 2.91878 10.3605C3.06069 8.43916 4.90307 8.15145 4.90307 8.15145C3.20228 7.52716 2.91878 9.44797 2.91878 9.44797C2.44656 8.8716 2.25736 7.71901 3.15498 7.43082C4.05259 7.14264 4.6664 7.86327 4.6664 7.86327C4.47767 6.85477 2.58815 7.09472 2.58815 7.09472C3.91116 5.84644 6.41481 6.42233 6.41481 6.42233C4.57196 5.55809 2.68228 6.23032 2.68228 6.23032C3.8164 4.9338 7.02878 5.5581 7.02878 5.5581C4.76069 4.59769 2.72989 5.46209 2.72989 5.46209C2.72989 5.46209 3.53307 4.50168 5.28069 3.78153C7.02878 3.06091 6.83958 2.58086 6.83958 2.58086C6.3199 2.9649 5.28069 3.06107 5.28069 3.06107C4.52513 1.95673 2.72989 2.38885 2.72989 2.38885C2.72989 2.38885 3.39577 1.36325 5.32783 1.09201C7.26069 0.821085 9.72148 3.6852 9.72148 3.6852C9.20196 2.58086 7.4537 1.28435 7.4537 1.28435C8.96545 1.33227 10.9496 3.34909 10.9496 3.34909C10.4772 2.34076 9.81545 1.86072 9.81545 1.86072C10.997 0.899668 13.595 0.948237 13.595 0.948237C12.6974 1.52413 12.8866 2.00449 12.8866 2.00449C14.0677 0.707649 15.3432 1.14009 15.3432 1.14009C14.2091 1.76439 14.4453 2.38869 14.4453 2.38869C15.4845 0.467872 17.4685 1.7163 17.2797 2.00449C17.0907 2.29268 15.4374 2.38869 15.4374 2.38869C15.9099 3.25276 18.3193 3.54127 18.3193 3.54127C17.9415 2.86905 16.902 2.62911 16.902 2.62911C18.6028 2.43693 17.7523 1.81263 17.7523 1.81263C19.1221 2.19699 21.6262 3.10948 21.6262 3.10948C21.0274 3.19935 20.7281 3.63777 20.7281 3.63777C21.9569 3.01315 24.4605 4.21365 24.4605 4.21365C24.6496 6.51899 25.3581 8.39188 26.492 9.97626C27.6261 11.5613 27.4367 12.4258 27.4367 12.4258C28.0505 11.417 27.3899 10.1205 27.3899 10.1205C28.3816 10.0247 29.3737 11.033 29.3737 11.033C29.2793 9.92834 27.5313 9.49622 27.5313 9.49622C29.1378 9.7844 33.2475 7.86359 34.381 8.43948C35.515 9.01618 34.0975 10.1689 34.0975 10.1689C34.2867 10.121 35.7175 9.33696 34.9955 8.39172C34.2731 7.44599 28.901 9.35212 27.2007 8.63198C25.5002 7.91135 24.8386 4.40583 24.8386 4.40583C24.8386 4.40583 25.8597 4.48619 27.1062 6.27824C28.3526 8.07078 31.1691 7.19121 31.1691 7.19121C29.3264 8.3438 27.5315 7.57524 27.5315 7.57524C28.2875 9.20787 33.2948 7.19121 34.9013 7.43099C36.507 7.67157 36.101 9.18915 34.9956 10.3127C33.8899 11.4364 31.5234 10.7685 31.5234 10.7685C31.5234 10.7685 30.1094 12.5451 36.3428 20.5804C43.541 29.8595 43.515 33.9571 40.9266 37.5747C38.0521 41.5926 38.4678 43.7609 38.4678 43.7609C38.4678 43.7609 38.5385 41.3841 42.1521 37.0618C45.7666 32.7393 40.4521 25.3918 40.4521 25.3918C45.1286 30.9387 45.4575 33.701 41.9401 39.0065C38.4224 44.3118 38.9639 47.9395 38.9639 47.9395C40.1175 40.0968 44.3242 38.7814 45.3413 34.3245C46.1423 30.8159 41.6226 25.356 38.8932 22.5106C33.8982 17.3029 32.5139 12.4121 32.5139 12.4121C32.5139 12.4121 34.0345 12.9117 35.9878 15.8113C37.9407 18.7106 39.8851 19.2689 39.8851 19.2689C39.2474 20.0612 38.3259 19.773 38.3259 19.773C39.3183 20.9979 45.9132 29.886 48.8842 36.1976C51.8558 42.5088 50.5143 47.9396 46.4042 48.9476C42.294 49.9565 41.231 52.9819 41.231 52.9819C42.7199 50.5323 49.1712 52.0738 50.7977 45.4897C52.0829 40.2872 48.1756 34.3963 46.4748 30.9389ZM4.61942 3.39685C4.38307 3.63744 2.96355 2.86679 2.72989 3.205C2.42101 3.65116 2.82545 3.85205 3.15482 4.16541C3.60307 4.5922 2.77704 4.59753 2.77704 4.59753C1.92989 3.55144 2.54037 2.62879 2.54037 2.62879C4.33561 2.1005 4.85577 3.15691 4.61942 3.39685ZM4.39037 4.59736C4.39037 4.59736 6.73894 3.84334 8.8218 5.46838C8.8218 5.46854 7.27196 3.01282 4.39037 4.59736ZM9.59672 5.78836C9.59672 5.78836 9.59672 3.2121 6.98148 3.54014C6.98164 3.54014 9.18513 4.04084 9.59672 5.78836ZM10.614 6.50237C10.4202 4.90217 11.268 4.06488 11.268 4.06488C9.98418 4.50749 10.614 6.50237 10.614 6.50237ZM11.8732 4.33596C11.098 4.63109 11.5826 6.03394 11.5826 6.03394C11.5826 5.19762 11.8732 4.33596 11.8732 4.33596ZM12.6723 5.78836C12.6723 5.78836 12.3331 5.07467 12.3331 4.33613C12.3331 4.33597 11.8732 5.29589 12.6723 5.78836ZM14.8032 6.0341C13.6899 5.96811 12.7691 4.76695 12.7691 4.76695C12.7691 4.76695 13.2532 5.96036 14.9001 6.79765C14.9001 6.79765 16.5515 6.1548 16.5712 4.64965C16.5712 4.64981 15.9167 6.10107 14.8032 6.0341ZM14.2116 3.9558C14.2116 3.9558 13.8691 2.9812 11.8732 3.00653C11.8732 3.00653 12.5026 4.33596 13.6893 4.43472C14.8758 4.53282 14.9243 3.52304 15.7237 3.5111C15.7237 3.5111 14.988 3.14352 14.2116 3.9558ZM17.2732 5.06208C17.2732 5.06208 18.2421 3.92966 19.7678 4.64981C21.2935 5.36995 22.2096 5.42272 22.5283 4.33613C22.5283 4.33613 21.8502 4.81601 21.0026 4.64981C20.1551 4.48361 18.5569 3.30101 17.3702 4.06488C17.3702 4.06488 16.5712 3.35797 15.9172 3.72393C15.9172 3.72377 17.128 4.01615 17.2732 5.06208ZM11.0501 5.72365C11.0501 5.72365 10.1535 9.1856 12.8656 9.13623C12.8656 9.13623 12.551 7.78259 13.9315 8.59487C15.3118 9.40747 17.467 11.7459 17.322 14.6261C17.322 14.6261 18.3285 13.6903 17.3286 11.3518C17.3286 11.3518 18.5815 8.10256 20.0343 7.09294C21.4342 6.12043 22.0443 7.16684 22.8674 5.56665C22.8674 5.56665 22.2378 6.18223 21.2693 6.03394C20.3004 5.88678 19.3075 5.86226 18.5328 7.43793C17.7577 9.01343 17.4894 9.99724 16.8875 10.7611C16.8875 10.7611 16.0631 9.7765 14.8277 8.57034C13.374 7.15055 12.3226 7.80695 12.4367 8.61956C12.4367 8.61956 10.8075 8.83465 11.0501 5.72365ZM12.2015 10.5886C12.3312 11.6691 13.4181 13.1098 13.7982 11.5611C14.1786 10.0122 13.4535 9.11186 13.4535 9.11186C13.4535 9.11186 13.9028 10.8781 13.3826 11.4888C12.8623 12.1002 12.2015 10.5886 12.2015 10.5886ZM14.1975 17.432C14.1975 17.432 15.8628 17.2878 16.252 14.9827C16.6421 12.6776 15.2605 11.5611 15.2605 11.5611C15.2605 11.5611 15.7208 12.1002 15.9172 14.4967C16.1139 16.8929 14.1975 17.432 14.1975 17.432ZM21.071 18.4766C20.5394 23.4112 22.3962 24.0952 22.8672 23.9151C22.8672 23.9151 21.3899 25.1758 19.7958 24.7437C19.7958 24.7437 23.5158 26.6887 25.4643 22.2586C25.4643 22.2586 23.6335 24.3094 22.311 22.4743C20.9885 20.6395 21.354 15.6249 24.8618 10.6756C24.862 10.6756 21.6028 13.542 21.071 18.4766ZM18.9451 21.8621C18.9451 21.8621 16.4858 17.827 17.8113 16.8195C19.1374 15.812 19.7958 18.6924 19.7958 18.6924C19.7958 18.6924 20.2559 16.4001 19.9372 15.0431C19.6188 13.6861 19.725 10.5772 21.3899 10.0965C23.055 9.61562 24.4724 6.03975 24.2955 4.76679C24.2955 4.76679 22.9075 8.5868 21.1774 9.1117C18.8031 9.83233 18.8626 14.1903 19.2224 16.7475C19.2224 16.7475 18.3423 15.3726 17.2797 15.2708C17.2797 15.2708 16.075 17.0357 17.7051 20.6737C17.7051 20.6737 13.7688 21.1778 12.6723 25.3199C12.6723 25.32 15.5793 21.2502 18.9451 21.8621ZM14.977 25.1688C18.2716 22.3886 20.0085 23.5553 20.0085 23.5553C18.0593 20.8536 14.977 25.1688 14.977 25.1688ZM4.95005 11.165C4.4537 11.6329 4.39418 10.3847 4.39418 10.3847C4.29513 10.9044 4.28958 11.3606 4.53656 11.4864C4.7837 11.6126 5.87069 11.9574 7.57212 15.0433C9.27259 18.1289 7.89053 20.0612 7.89053 20.0612C8.9891 19.5571 8.81228 18.4766 8.8218 17.4322C8.8318 16.3872 10.4596 14.9109 10.4596 14.9109C10.4596 14.9109 10.7916 15.0279 10.8635 16.0632C10.9353 17.099 9.13069 19.5931 8.28926 20.1696C7.44736 20.7457 7.14656 21.394 6.98164 21.754C6.81608 22.1143 6.0837 22.1861 5.69418 22.3664C5.30418 22.5468 5.16291 23.3385 5.16291 23.3385C5.58783 22.8343 6.43831 23.5191 8.13878 22.6657C9.83958 21.8126 11.0207 18.6992 11.0801 16.4237C11.1386 14.1479 7.89053 10.8768 7.89053 10.8768C7.89053 10.8768 7.9618 11.2729 7.7137 11.5611C7.46561 11.8493 7.35958 11.3089 6.9818 10.6757C6.60355 10.0424 6.9818 10.0968 6.9818 10.0968C8.30434 10.4332 10.4064 12.8938 11.2681 14.9109C12.1296 16.9278 10.5577 21.268 9.13085 22.3665C8.39672 22.9319 7.71386 23.3387 7.71386 23.3387C9.76863 23.123 10.4555 23.0086 11.0183 21.6283C11.5835 20.2419 12.532 17.0904 11.7943 14.2448C11.0574 11.3994 7.0145 9.31017 7.0145 8.01365C7.0145 6.71665 9.59704 7.3474 9.59704 7.3474C7.88339 6.67905 6.59307 6.87737 5.41053 7.70691C4.32212 8.47143 4.39053 10.2648 4.39053 10.2648C4.59593 8.89483 5.07085 8.3751 5.07085 8.3751C5.46085 9.52736 6.40275 9.54447 6.40275 9.54447C5.26894 9.79619 5.44577 10.6966 4.95005 11.165ZM4.17021 20.2414C4.02878 20.6379 5.23354 22.4028 5.23354 22.4028C4.86767 21.6672 4.17021 20.2414 4.67259 20.5654C5.17529 20.8899 6.60624 21.754 6.60624 21.754C5.85307 21.2136 4.31212 19.8453 4.17021 20.2414ZM5.76497 19.7728C6.1037 20.0714 6.50894 20.6377 7.21767 20.8535C7.21767 20.8535 6.51561 20.3602 6.18974 19.9169C5.83593 19.4348 5.35418 19.1608 5.38259 19.7727C5.41021 20.3854 5.76878 20.9911 5.76878 20.9911C5.76878 20.9911 5.38101 19.435 5.76497 19.7728ZM9.95751 26.2086C8.74053 27.7054 5.56402 27.6972 5.04386 23.663C5.04386 23.663 5.04228 27.5986 8.14212 27.6013C10.4594 27.6034 9.67752 25.3496 12.4366 25.169C12.4367 25.1688 11.2431 24.6268 9.95751 26.2086ZM28.4761 49.692C24.6499 49.1635 21.8155 47.5792 20.3507 42.4407C20.3507 42.4407 21.7677 49.5958 26.3031 50.2206C30.8383 50.8446 33.1531 52.1403 33.767 52.9818C33.767 52.9818 32.3028 50.2206 28.4761 49.692ZM18.481 46.9016C17.438 42.861 17.3275 39.5591 18.2723 34.8526C18.2723 34.8526 15.9012 41.1495 17.4666 46.5237C19.5345 53.6254 23.5496 51.9325 25.3112 56.3195C25.0688 52.3646 19.9162 52.4612 18.481 46.9016ZM27.0588 41.864C20.1399 38.2896 18.2589 36.2886 17.9415 29.5702C17.9415 29.5702 16.902 37.062 22.6656 40.5196C28.4293 43.9775 34.1923 47.0031 35.7985 49.9322C35.7985 49.9322 33.9774 45.4389 27.0588 41.864ZM32.8697 37.4941C27.3423 35.1889 20.9647 32.1636 18.2245 29.5702C18.2245 29.5702 21.3899 35.0932 28.9013 38.7425C36.4128 42.3929 38.0659 48.2996 38.0659 48.2996C38.0659 48.2996 37.1296 42.4783 29.8929 38.551C22.6566 34.6229 20.9643 32.0679 20.9643 32.0679C20.9643 32.0679 25.925 36.0533 30.5543 37.4942C35.184 38.9347 37.4045 42.2488 38.0658 46.3302C38.0661 46.3299 38.3969 39.7994 32.8697 37.4941ZM21.5788 29.5701C21.5788 29.5701 31.4051 33.1722 34.5234 35.5248C37.641 37.8778 39.3889 37.0139 39.1053 33.3639C39.1053 33.3639 39.0104 37.638 36.0818 35.9089C33.1532 34.1801 29.4209 31.6831 21.5788 29.5701ZM29.1845 30.2905C32.4915 31.7794 34.2869 29.378 35.7985 24.5755C35.7985 24.5755 33.8408 30.4346 30.3572 29.8582C26.8731 29.2824 22.6418 27.1211 20.0085 26.4484C20.0085 26.4483 25.8781 28.8015 29.1845 30.2905ZM36.9797 23.3385C36.9797 23.3385 37.9242 30.5463 35.3262 33.2037C35.3262 33.2039 38.7278 32.5628 36.9797 23.3385ZM15.5796 29.2822C15.5796 29.2822 16.4726 28.9454 17.8686 28.6095C19.2642 28.2732 19.1693 27.6012 19.1693 27.6012C19.1693 27.6012 19.6081 28.5616 18.4915 28.9454C18.4915 28.9454 19.7442 29.2822 21.3229 28.9454C22.9016 28.6095 25.6888 29.2339 28.9013 31.2029C28.9013 31.2029 26.1616 28.8978 23.5158 28.513C20.8701 28.1293 20.7486 28.9504 19.5475 28.7057C19.5475 28.7057 20.2088 27.778 19.075 26.8247C19.075 26.8247 18.8101 28.1775 16.8874 28.4652C16.8874 28.4652 16.8547 27.6336 17.4926 26.8247C17.4926 26.8247 16.3118 27.7453 14.977 27.8892C14.977 27.8892 15.7429 26.6885 15.2593 26.0641C15.2593 26.0641 14.4581 26.8321 13.9086 27.2166C13.9086 27.2166 13.0756 25.9684 14.4455 24.5752C14.4455 24.5752 12.7447 25.5361 13.3591 27.6008C13.3591 27.6008 14.1385 27.4893 14.977 26.8245C14.977 26.8245 14.9848 27.9331 14.1008 28.2713C14.1008 28.2713 14.9653 28.6155 16.5713 27.6517C16.5713 27.652 15.5796 28.6095 15.5796 29.2822ZM26.5366 26.5447C26.5366 26.5447 30.1061 26.8249 32.3023 24.2394C35.1008 20.9456 31.4935 21.3117 29.6983 20.1706C27.3378 18.6693 27.0589 15.009 27.0589 15.009C27.0589 15.009 26.7823 19.7018 30.3574 21.2864C33.9326 22.8708 29.3456 26.6165 26.5366 26.5447Z" fill="black"/>
<path d="M55.3393 39.1022C53.3168 28.721 54.7142 23.036 54.7142 23.036C47.7519 21.6198 43.232 18.673 40.068 15.0189C36.9042 18.673 32.3844 21.6196 25.4226 23.036C25.4226 23.036 26.8196 28.721 24.7973 39.1022C23.553 45.4897 26.2203 48.993 31.7646 52.3449C39.6014 57.0829 39.5988 59.4984 40.0682 60.6865C40.5377 59.4984 40.5357 57.0829 48.3722 52.3449C53.9163 48.993 56.5834 45.4897 55.3393 39.1022Z" fill="white"/>
<path d="M40.0551 56.6225C38.373 54.9192 36.0065 53.1546 32.8362 51.2381C27.3694 47.9327 25.9883 45.4573 26.9262 40.6427C28.2854 33.6652 28.307 28.4351 28.0659 25.1969C32.813 23.8292 36.7405 21.7376 40.0551 18.8115C43.37 21.7376 47.2973 23.8294 52.0443 25.1969C51.8034 28.4351 51.8257 33.6652 53.1843 40.6427C54.1221 45.4573 52.7411 47.9327 47.2745 51.2381C44.1038 53.1546 41.7373 54.9194 40.0551 56.6225ZM40.0551 18.3268C36.6832 21.3716 32.5964 23.5511 27.6856 24.9267C27.9443 28.0693 27.975 33.3838 26.5746 40.5717C25.6108 45.5186 27.0881 48.186 32.653 51.551C36.2656 53.7347 38.5562 55.5619 40.0551 57.1415C41.5542 55.5619 43.8453 53.7347 47.4573 51.551C53.0227 48.186 54.4997 45.5186 53.5359 40.5717C52.1356 33.3836 52.1662 28.0693 52.4249 24.9267C47.5143 23.5511 43.4273 21.3716 40.0551 18.3268Z" fill="black"/>
<path d="M40.0546 58.2188C38.6346 56.5635 36.3027 54.605 32.2866 52.1769C26.465 48.6572 24.8461 45.693 25.8713 40.4303C27.3562 32.8076 27.2173 27.3483 26.9185 24.3816C32.2154 22.984 36.5483 20.6631 40.0546 17.3416C43.5616 20.6631 47.8946 22.984 53.1912 24.3816C52.8927 27.3483 52.7535 32.8076 54.2383 40.4303C55.2634 45.693 53.645 48.6572 47.8231 52.1769C43.8066 54.6049 41.475 56.5635 40.0546 58.2188ZM40.0546 13.6872C36.6066 17.6695 31.6802 20.8809 24.0924 22.4246C24.0924 22.4246 25.6151 28.6205 23.4112 39.9353C22.0553 46.8965 24.962 50.7148 31.0045 54.3682C39.5458 59.5325 39.5434 62.1652 40.0546 63.4593C40.5667 62.1652 40.5639 59.5325 49.1053 54.3682C55.1475 50.7147 58.0546 46.8963 56.6983 39.9353C54.4942 28.6206 56.0175 22.4246 56.0175 22.4246C48.4296 20.8809 43.5031 17.6695 40.0546 13.6872Z" fill="black"/>
<path d="M40.899 38.3168C40.899 40.1263 40.899 41.6152 40.9919 42.407C41.0473 42.9535 41.1587 43.3685 41.7152 43.4434C41.9747 43.4815 42.3826 43.5195 42.5488 43.5195C42.6607 43.5195 42.6977 43.5754 42.6977 43.6322C42.6977 43.7266 42.605 43.783 42.4014 43.783C41.3814 43.783 40.2131 43.7266 40.1212 43.7266C40.0285 43.7266 38.8598 43.783 38.3036 43.783C38.0996 43.783 38.0069 43.7453 38.0069 43.6322C38.0069 43.5752 38.0442 43.5195 38.1555 43.5195C38.3225 43.5195 38.5447 43.4816 38.7115 43.4434C39.0823 43.3685 39.1753 42.9535 39.2492 42.407C39.3419 41.6153 39.3419 40.1263 39.3419 38.3168V30.3435L36.598 30.3815C35.448 30.3998 35.0033 30.5318 34.7065 30.9847C34.5025 31.3048 34.4469 31.437 34.3912 31.5683C34.3355 31.7197 34.2799 31.7575 34.2058 31.7575C34.1503 31.7575 34.1133 31.7007 34.1133 31.5875C34.1133 31.3994 34.4839 29.7777 34.5209 29.6272C34.558 29.5142 34.6322 29.2691 34.7063 29.2691C34.836 29.2691 35.022 29.4574 35.5226 29.4952C36.0598 29.552 36.7644 29.5894 36.9873 29.5894H43.9403C45.1269 29.5894 45.6273 29.401 45.7757 29.401C45.8684 29.401 45.8684 29.5141 45.8684 29.627C45.8684 30.1929 45.8123 31.4931 45.8123 31.7006C45.8123 31.8704 45.7571 31.9456 45.6826 31.9456C45.5904 31.9456 45.553 31.8891 45.5344 31.6251L45.516 31.4183C45.4415 30.8527 45.0157 30.4191 43.2355 30.3815L40.899 30.3435V38.3168Z" fill="black"/>
<path d="M15.5508 49.064C13.9273 48.1475 14.2427 47.1204 14.2427 47.1204C13.1636 47.4322 13.515 48.1571 13.515 48.1571C12.4376 47.2894 12.962 46.3464 12.962 46.3464C12.1209 46.7699 12.0385 47.2777 12.0754 47.7145C12.2427 49.7046 16.8387 50.3116 18.9449 50.3931C17.4871 49.7635 15.6941 49.1448 15.5508 49.064Z" fill="black"/>
<path d="M24.4086 54.9C23.2349 54.6897 22.0411 54.6397 21.1889 54.926C20.1227 55.2843 20.1242 54.5681 20.1242 54.5681C18.9326 54.3202 19.2691 53.4534 19.2691 53.4534C18.1083 54.5155 16.918 52.6619 16.918 52.6619L18.2269 52.3959C21.7453 51.6538 24.4086 54.9 24.4086 54.9ZM22.6007 54.0015C19.8299 52.4941 18.6278 52.9003 18.6278 52.9003C18.7464 53.0326 18.9553 53.0103 18.9553 53.0103C20.8003 53.1003 22.6007 54.0015 22.6007 54.0015Z" fill="black"/>
<path d="M13.8067 51.8773C14.3998 51.8597 16.1506 50.8086 19.2761 51.2719C18.1694 50.8294 16.4318 50.6001 14.6909 51.1274C14.1129 51.3024 13.0031 51.4882 12.3301 51.2928C12.3301 51.2928 12.7179 52.9308 14.2183 52.8641L15.2852 52.3145C15.8777 51.9591 16.8636 51.7375 17.6474 51.7146C18.8972 51.677 20.3152 51.9021 20.7661 52.0804C17.7002 50.6001 15.3236 51.9528 13.8067 51.8773Z" fill="black"/>
<path d="M10.0867 38.3961C10.5558 37.8126 10.5211 36.963 10.0048 36.423C9.63797 36.0383 9.24194 35.7863 9.24194 35.7863C8.85004 36.6068 8.9321 37.5977 8.9321 37.5977C8.33258 37.0411 7.84766 37.4187 7.84766 37.4187C8.51289 37.7878 8.8402 38.7428 8.20639 40.8889C7.79305 42.2892 8.08242 43.0976 8.08242 43.0976C8.06718 41.9671 8.61829 40.7261 9.01051 39.9885C9.79925 38.3248 9.55623 37.1486 9.55623 37.1486C9.79591 37.6433 9.74432 38.3824 9.63813 38.9844C9.79083 38.7741 9.9421 38.5765 10.0867 38.3961Z" fill="black"/>
<path d="M11.3225 45.2982C12.9592 44.4183 13.989 45.6486 13.989 45.6486C14.4484 45.152 14.2517 44.4201 14.0273 44.3376C14.7944 44.3278 15.1489 43.2125 15.1489 43.2125C14.7748 43.0382 14.5206 42.9932 14.1679 43.0256C15.0419 42.715 15.2941 42.0069 15.3151 41.3417V41.3413C15.3386 40.5846 15.2186 40.2168 15.0633 39.8825C14.819 39.3547 14.4878 39.3413 14.3375 39.5091C14.2324 39.6263 14.3324 39.8725 14.5379 39.939C14.7619 40.0114 14.827 40.1844 14.8816 40.3687C15.0779 41.0341 14.5489 41.8483 14.0394 42.0683C14.0394 42.0683 14.7729 41.3116 14.5287 40.4863C14.4238 40.7322 14.1148 40.9244 13.6498 40.9731C12.3714 41.1062 11.91 41.8877 11.91 41.8877C12.2819 41.3417 12.0767 40.5586 12.0767 40.5586C9.25048 41.1972 8.13064 42.4602 8.69238 46.4475C8.71016 45.0119 8.98857 43.7044 10.0924 42.2658C10.0924 42.2658 8.6908 44.6742 9.04683 47.224C9.15508 47.3976 9.27667 47.563 9.41381 47.7224C8.89445 45.3893 10.1133 42.8565 11.7092 42.0931C11.7092 42.0931 10.1313 43.1839 9.75762 45.4807C9.29492 48.3248 10.6778 49.5845 13.4352 50.253L13.5678 50.0929C9.74508 49.1043 9.81397 46.1087 11.3225 45.2982Z" fill="black"/>
<path d="M16.5765 34.0647C16.25 35.9199 15.0337 37.4102 12.9535 38.3215C12.6806 38.4338 12.3729 38.5626 12.0186 38.7152C11.8154 38.8025 11.6241 38.9074 11.4435 39.0238L11.4427 39.0234C11.4427 39.0234 9.19271 40.1421 8.6416 43.2289C8.74493 39.9614 11.4419 37.6122 12.0756 36.8548C12.8033 35.9841 11.8826 35.0797 11.8826 35.0797C12.5392 35.0609 12.9187 35.4547 12.9187 35.4547C12.6608 34.7847 13.5848 33.7518 13.5848 33.7518C14.0281 32.8497 13.3929 32.6381 13.3929 32.6381C16.1083 33.1563 15.1372 35.8017 15.1372 35.8017C16.3816 34.3532 15.4141 32.6015 14.4192 32.1386C13.5127 31.7166 13.2662 30.3909 12.596 30.1635C13.3987 29.7305 14.3164 30.1635 14.3164 30.1635C12.5335 29.2018 11.6138 30.3009 11.7491 30.6562C11.3292 30.7806 11.2199 30.4475 11.2897 30.2671C11.831 28.8657 13.8962 29.3505 13.8962 29.3505C16.7602 30.0328 16.8843 32.3074 16.5765 34.0647ZM14.3516 34.8542C14.0691 36.5356 12.3256 37.0731 10.5437 39.1954C11.1273 38.4895 12.4386 37.6824 13.3711 36.9563C14.5068 36.0723 14.3516 34.8542 14.3516 34.8542ZM15.3508 31.0358C16.4376 32.911 16.1283 34.5001 16.1283 34.5001C16.7706 32.3141 15.3508 31.0358 15.3508 31.0358Z" fill="black"/>
<path d="M64.6744 49.064C66.2977 48.1475 65.9827 47.1204 65.9827 47.1204C67.0615 47.4322 66.7103 48.1571 66.7103 48.1571C67.7876 47.2894 67.263 46.3464 67.263 46.3464C68.1041 46.7699 68.1866 47.2777 68.1496 47.7145C67.9827 49.7046 63.3866 50.3116 61.2803 50.3931C62.7381 49.7635 64.5312 49.1448 64.6744 49.064Z" fill="black"/>
<path d="M61.9973 52.3957L63.3059 52.6618C63.3059 52.6618 62.1157 54.5157 60.9548 53.4534C60.9548 53.4534 61.2915 54.3203 60.0996 54.568C60.0996 54.568 60.1008 55.2841 59.0351 54.9263C58.1824 54.6396 56.9888 54.6896 55.8154 54.8999C55.8156 54.9 58.4786 51.6541 61.9973 52.3957ZM61.2688 53.0104C61.2688 53.0104 61.478 53.0328 61.5962 52.9003C61.5962 52.9003 60.3937 52.4942 57.623 54.0016C57.6229 54.0016 59.4238 53.1004 61.2688 53.0104Z" fill="black"/>
<path d="M66.4177 51.8773C65.8245 51.8597 64.0736 50.8086 60.9482 51.2719C62.0548 50.8294 63.7926 50.6001 65.5334 51.1274C66.1113 51.3024 67.2217 51.4882 67.8944 51.2928C67.8944 51.2928 67.5066 52.9308 66.0058 52.8641L64.939 52.3145C64.3466 51.9591 63.361 51.7375 62.5766 51.7146C61.3269 51.677 59.9088 51.9021 59.458 52.0804C62.5239 50.6001 64.9007 51.9528 66.4177 51.8773Z" fill="black"/>
<path d="M70.1385 38.3961C69.6693 37.8126 69.7041 36.963 70.2206 36.423C70.5874 36.0383 70.9833 35.7863 70.9833 35.7863C71.3753 36.6068 71.2929 37.5977 71.2929 37.5977C71.8922 37.0411 72.3777 37.4187 72.3777 37.4187C71.712 37.7878 71.385 38.7428 72.0187 40.8889C72.432 42.2892 72.1428 43.0976 72.1428 43.0976C72.1579 41.9671 71.6066 40.7261 71.2144 39.9885C70.4255 38.3248 70.6685 37.1486 70.6685 37.1486C70.4295 37.6433 70.4807 38.3824 70.5866 38.9844C70.4344 38.7741 70.2834 38.5765 70.1385 38.3961Z" fill="black"/>
<path d="M68.9029 45.2982C67.2659 44.4183 66.2361 45.6486 66.2361 45.6486C65.7765 45.152 65.9734 44.4201 66.1976 44.3376C65.431 44.3278 65.0762 43.2125 65.0762 43.2125C65.4505 43.0382 65.7048 42.9932 66.0576 43.0256C65.183 42.715 64.931 42.0069 64.9102 41.3417V41.3413C64.8867 40.5846 65.0067 40.2168 65.1621 39.8825C65.4061 39.3547 65.7376 39.3413 65.8878 39.5091C65.9929 39.6263 65.8927 39.8725 65.6875 39.939C65.4634 40.0114 65.3989 40.1844 65.3441 40.3687C65.1473 41.0341 65.6765 41.8483 66.1861 42.0683C66.1861 42.0683 65.4524 41.3116 65.6965 40.4863C65.8015 40.7322 66.1105 40.9244 66.5754 40.9731C67.8537 41.1062 68.3156 41.8877 68.3156 41.8877C67.9435 41.3417 68.1488 40.5586 68.1488 40.5586C70.9748 41.1972 72.0945 42.4602 71.5329 46.4475C71.5151 45.0119 71.2367 43.7044 70.1329 42.2658C70.1329 42.2658 71.5345 44.6742 71.1784 47.224C71.07 47.3976 70.9486 47.563 70.8118 47.7224C71.3307 45.3893 70.1121 42.8565 68.5164 42.0931C68.5164 42.0931 70.0942 43.1839 70.4676 45.4807C70.9305 48.3248 69.5478 49.5845 66.7899 50.253L66.6575 50.0929C70.4802 49.1043 70.4108 46.1087 68.9029 45.2982Z" fill="black"/>
<path d="M66.3282 29.3505C66.3282 29.3505 68.3932 28.8657 68.9349 30.267C69.0044 30.4479 68.8951 30.7808 68.4757 30.6559C68.6108 30.3009 67.6911 29.2019 65.9079 30.1639C65.9079 30.1639 66.8257 29.7303 67.6279 30.1639C66.9578 30.3911 66.7116 31.7168 65.8055 32.1384C64.8103 32.6017 63.8429 34.3529 65.087 35.8018C65.087 35.8018 64.116 33.1564 66.8314 32.6382C66.8314 32.6382 66.1959 32.8497 66.6398 33.7522C66.6398 33.7522 67.5636 34.7845 67.3051 35.4543C67.3051 35.4543 67.6848 35.061 68.3414 35.0794C68.3414 35.0794 67.4206 35.9844 68.1486 36.8549C68.7822 37.6125 71.4787 39.9611 71.5825 43.2289C71.0314 40.1421 68.7814 39.0231 68.7814 39.0231L68.7808 39.0236C68.6 38.9069 68.4087 38.8034 68.2057 38.7154C67.8514 38.5628 67.5435 38.434 67.2709 38.3217C65.1901 37.4107 63.974 35.92 63.6482 34.0649C63.3403 32.3074 63.464 30.0327 66.3282 29.3505ZM66.8533 36.9561C67.786 37.6826 69.0971 38.4897 69.6809 39.1963C67.8986 37.0734 66.1552 36.5358 65.8728 34.8544C65.8728 34.8543 65.7178 36.072 66.8533 36.9561ZM64.0959 34.5001C64.0959 34.5001 63.7865 32.911 64.8736 31.0359C64.8736 31.0359 63.4541 32.3143 64.0959 34.5001Z" fill="black"/>
<path d="M35.8304 58.0142C35.3994 56.9149 35.6725 56.0694 35.3366 55.7116C34.2941 54.6023 31.3764 54.4363 26.5925 55.1641C22.592 55.7733 19.258 57.3983 15.4521 57.1874C15.6174 57.4159 15.7774 57.671 15.9391 57.9397C16.5274 57.9558 18.0493 57.9021 20.8745 57.2328C20.8745 57.2328 19.0355 58.0392 16.1239 58.2484C16.9204 59.5867 17.8456 61.1351 19.8231 61.4644C23.0579 62.02 27.2429 59.025 32.3444 59.535C36.002 59.9003 36.951 60.7251 36.951 60.7251C36.951 60.7251 36.3566 59.3569 35.8304 58.0142Z" fill="black"/>
<path d="M44.1511 58.0142C44.5823 56.9149 44.3092 56.0694 44.6447 55.7116C45.6873 54.6023 48.6055 54.4363 53.3892 55.1641C57.3893 55.7733 60.7233 57.3983 64.5292 57.1874C64.3641 57.4159 64.2043 57.671 64.0424 57.9397C63.4541 57.9558 61.9325 57.9021 59.1073 57.2328C59.1073 57.2328 60.946 58.0392 63.8577 58.2484C63.0612 59.5867 62.1355 61.1351 60.1584 61.4644C56.9235 62.02 52.7385 59.025 47.6368 59.535C43.9792 59.9003 43.0303 60.7251 43.0303 60.7251C43.0303 60.7251 43.6249 59.3569 44.1511 58.0142Z" fill="black"/>
<path d="M15.0333 63.4448C17.5288 64.5151 19.0044 62.6667 17.5803 61.8927C16.4212 61.9677 16.2092 63.0795 16.2092 63.0795C12.5534 62.855 12.8555 58.8873 12.8699 58.5059C12.8699 58.5059 12.0533 62.1668 15.0333 63.4448Z" fill="black"/>
<path d="M64.9481 63.4448C62.4525 64.5151 60.977 62.6667 62.4011 61.8927C63.5605 61.9677 63.7729 63.0795 63.7729 63.0795C67.4276 62.855 67.126 58.8873 67.1117 58.5059C67.1117 58.5059 67.9279 62.1668 64.9481 63.4448Z" fill="black"/>
<path d="M39.9911 62.9202C36.5637 62.9031 33.4318 62.4745 32.5654 61.4588C32.5727 61.5996 33.0192 65.7842 33.5011 66.3965C34.0732 67.1233 38.5437 67.3005 39.9911 67.3151C41.438 67.3003 45.9088 67.1233 46.4808 66.3965C46.9629 65.7842 47.4089 61.5996 47.4162 61.4588C46.5504 62.4745 43.4188 62.9029 39.9911 62.9202Z" fill="black"/>
<path d="M15.9317 64.3492C13.2499 64.1171 11.3384 60.7226 12.8539 57.7183C13.3987 59.6749 15.0336 58.7971 15.0336 58.7971C13.205 56.297 15.4931 55.0213 15.4931 55.0213C18.8811 54.1487 21.1161 54.8944 22.1744 55.438C22.519 55.347 22.8674 55.2547 23.219 55.1645C20.013 52.9083 12.5461 53.3187 11.278 58.2743C10.038 63.1217 13.7247 65.6341 16.6776 65.666C19.7242 65.6985 20.6741 62.5423 20.6741 62.5423C20.2593 62.9019 19.4122 62.6212 18.6876 62.9437C18.6077 63.4164 18.018 64.5297 15.9317 64.3492Z" fill="black"/>
<path d="M64.0497 64.3492C66.7316 64.1171 68.6432 60.7226 67.1278 57.7183C66.583 59.6749 64.9479 58.7971 64.9479 58.7971C66.777 56.297 64.4886 55.0213 64.4886 55.0213C61.1005 54.1487 58.8651 54.8944 57.8075 55.438C57.4622 55.347 57.1141 55.2547 56.7627 55.1645C59.9684 52.9083 67.4355 53.3187 68.7036 58.2743C69.9436 63.1217 66.2573 65.6341 63.3044 65.666C60.2576 65.6985 59.3076 62.5423 59.3076 62.5423C59.7221 62.9019 60.5694 62.6212 61.294 62.9437C61.3735 63.4164 61.9632 64.5297 64.0497 64.3492Z" fill="black"/>
<path d="M5.15416 66.1604C5.15416 66.1604 8.82559 67.1822 12.5821 65.3574C12.4392 65.2489 12.308 65.1332 12.187 65.0145C9.43479 66.4751 5.86035 65.8534 4.29273 64.093C4.29273 64.093 6.31257 65.7462 9.39654 65.3306C10.3703 65.1994 11.1645 64.9502 11.8042 64.587C11.5992 64.3276 11.4373 64.0678 11.3129 63.8374C10.3232 64.2091 9.25352 63.9995 8.54368 63.3355C6.59432 61.5107 7.86114 60.2704 7.86114 60.2704C7.04431 59.8595 6.36304 60.3973 6.34638 60.7267C6.03019 59.7166 4.75654 59.3658 4.75654 59.3658C4.6813 59.9289 4.77225 60.0904 4.9532 60.5442C3.24098 58.1985 -0.633462 60.1042 0.110347 60.849C0.254792 60.9645 0.521299 60.9586 0.648283 60.6626C0.996378 59.8494 2.6767 59.7056 3.36654 60.0775C3.36654 60.0775 1.96495 59.9376 1.38019 60.3589C1.68035 60.6032 1.92606 61.077 2.17035 61.7452C2.77924 63.4093 3.9513 63.9088 3.9513 63.9088C3.10574 63.6332 1.75558 64.3731 1.75558 64.3731C3.69051 67.8545 8.17178 68.3499 11.7527 66.3515C9.91035 66.8953 7.43035 67.0495 5.15416 66.1604Z" fill="black"/>
<path d="M74.8278 66.1604C74.8278 66.1604 71.1563 67.1822 67.4004 65.3574C67.5426 65.2489 67.6744 65.1332 67.7948 65.0145C70.5467 66.4751 74.1215 65.8534 75.6896 64.093C75.6896 64.093 73.6691 65.7462 70.5858 65.3306C69.6113 65.1994 68.8177 64.9502 68.1775 64.587C68.3828 64.3276 68.5447 64.0678 68.6693 63.8374C69.6585 64.2091 70.7285 63.9995 71.438 63.3355C73.3875 61.5107 72.1207 60.2704 72.1207 60.2704C72.9375 59.8595 73.6188 60.3973 73.6358 60.7267C73.9518 59.7166 75.2253 59.3658 75.2253 59.3658C75.3009 59.9289 75.2094 60.0904 75.0288 60.5442C76.7409 58.1985 80.6153 60.1042 79.8717 60.849C79.7272 60.9645 79.4607 60.9586 79.3337 60.6626C78.9856 59.8494 77.3056 59.7056 76.6152 60.0775C76.6152 60.0775 78.0174 59.9376 78.6024 60.3589C78.3015 60.6032 78.0559 61.077 77.812 61.7452C77.2031 63.4093 76.0312 63.9088 76.0312 63.9088C76.8766 63.6332 78.2264 64.3731 78.2264 64.3731C76.2917 67.8545 71.8102 68.3499 68.2296 66.3515C70.0715 66.8953 72.5517 67.0495 74.8278 66.1604Z" fill="black"/>
<path d="M32.1243 63.5859C30.4311 62.9084 28.8868 61.437 28.0653 60.539C27.7749 60.6011 27.4886 60.6686 27.2061 60.7402C28.9265 62.925 31.0232 63.8982 32.2362 64.3061C32.1957 64.064 32.1583 63.8217 32.1243 63.5859Z" fill="black"/>
<path d="M47.8572 63.5859C49.55 62.9084 51.0946 61.437 51.9161 60.539C52.2061 60.6011 52.4929 60.6686 52.7754 60.7402C51.0551 62.925 48.9581 63.8982 47.7451 64.3061C47.7859 64.064 47.8231 63.8217 47.8572 63.5859Z" fill="black"/>
<path d="M32.9837 60.7873C33.0539 60.6371 33.1364 60.4967 33.2012 60.3457C33.1561 60.3392 33.1112 60.3328 33.0648 60.327C32.7553 60.4956 32.6045 60.6947 32.6045 60.6947C32.7018 60.7864 32.8056 60.8711 32.9139 60.951C32.9361 60.8961 32.9586 60.8412 32.9837 60.7873Z" fill="black"/>
<path d="M46.9979 60.7873C46.9273 60.6371 46.8446 60.4967 46.7803 60.3457C46.8254 60.3392 46.8704 60.3328 46.9168 60.327C47.2265 60.4956 47.3768 60.6947 47.3768 60.6947C47.2798 60.7864 47.1758 60.8711 47.0674 60.951C47.0452 60.8961 47.0227 60.8412 46.9979 60.7873Z" fill="black"/>
<path d="M33.6174 61.0407C33.7133 60.8427 33.83 60.6608 33.9073 60.4569C33.7538 60.4296 33.5936 60.4035 33.4239 60.3778C33.3522 60.5582 33.256 60.7234 33.1738 60.9004C33.146 60.9598 33.1206 61.019 33.0947 61.0781C33.229 61.1659 33.3687 61.2461 33.5111 61.3197C33.5442 61.2246 33.575 61.1286 33.6174 61.0407Z" fill="black"/>
<path d="M46.3641 61.0407C46.2682 60.8427 46.1515 60.6608 46.0742 60.4569C46.2279 60.4296 46.3883 60.4035 46.5576 60.3778C46.6298 60.5582 46.7258 60.7234 46.808 60.9004C46.8357 60.9598 46.8612 61.019 46.8868 61.0781C46.7525 61.1659 46.613 61.2461 46.4707 61.3197C46.4376 61.2246 46.4066 61.1286 46.3641 61.0407Z" fill="black"/>
<path d="M34.2995 61.2461C34.4036 61.0281 34.5163 60.8211 34.6033 60.5966C34.4551 60.563 34.2995 60.5301 34.1305 60.498C34.0485 60.7292 33.9144 60.9309 33.8082 61.1536C33.7678 61.2391 33.736 61.3276 33.7041 61.4145C33.8524 61.4839 34.0022 61.5457 34.1509 61.6012C34.2062 61.486 34.2451 61.3613 34.2995 61.2461Z" fill="black"/>
<path d="M45.6824 61.2461C45.5789 61.0281 45.4661 60.8211 45.3789 60.5966C45.5267 60.563 45.6824 60.5301 45.8519 60.498C45.9338 60.7292 46.068 60.9309 46.1738 61.1536C46.2143 61.2391 46.2461 61.3276 46.2778 61.4145C46.1295 61.4839 45.9799 61.5457 45.8311 61.6012C45.7762 61.486 45.7375 61.3613 45.6824 61.2461Z" fill="black"/>
<path d="M34.8754 61.4831C34.9804 61.2367 35.0872 60.991 35.1934 60.7448C35.0777 60.7126 34.9532 60.6797 34.8192 60.647C34.7258 60.8932 34.6031 61.1214 34.4896 61.3589C34.4394 61.4631 34.4012 61.5711 34.3545 61.6739C34.4931 61.7215 34.6286 61.7629 34.7596 61.7992C34.7964 61.6934 34.8318 61.5866 34.8754 61.4831Z" fill="black"/>
<path d="M45.1055 61.4831C45.0011 61.2367 44.894 60.991 44.7881 60.7448C44.9038 60.7126 45.0282 60.6797 45.1622 60.647C45.2557 60.8932 45.3778 61.1214 45.4914 61.3589C45.5411 61.4631 45.58 61.5711 45.627 61.6739C45.4881 61.7215 45.3527 61.7629 45.2217 61.7992C45.1849 61.6934 45.1492 61.5866 45.1055 61.4831Z" fill="black"/>
<path d="M35.8699 60.9639C35.7386 60.9143 35.5846 60.8614 35.4054 60.8069C35.2877 61.0804 35.164 61.3521 35.0523 61.6291C35.0221 61.7035 34.9961 61.7799 34.9697 61.8557C35.107 61.8907 35.2354 61.9194 35.3534 61.9435C35.5221 61.6149 35.6875 61.2846 35.8699 60.9639Z" fill="black"/>
<path d="M44.1113 60.9639C44.2428 60.9143 44.3969 60.8614 44.5762 60.8069C44.6937 61.0804 44.8177 61.3521 44.9293 61.6291C44.9594 61.7035 44.9855 61.7799 45.012 61.8557C44.8747 61.8907 44.7464 61.9194 44.6283 61.9435C44.4597 61.6149 44.2942 61.2846 44.1113 60.9639Z" fill="black"/>
<path d="M36.0777 61.047C35.9013 61.3543 35.7418 61.6712 35.5801 61.9867C35.8542 62.0359 36.0266 62.0522 36.0266 62.0522L36.506 61.2646C36.4669 61.2383 36.3352 61.1564 36.0777 61.047Z" fill="black"/>
<path d="M43.9037 61.047C44.08 61.3543 44.24 61.6712 44.4016 61.9867C44.1272 62.0359 43.955 62.0522 43.955 62.0522L43.4756 61.2646C43.5148 61.2383 43.6464 61.1564 43.9037 61.047Z" fill="black"/>
<path d="M25.7021 62.5774L26.0824 62.805C26.0824 62.805 24.9583 62.9641 24.6399 64.0808C24.5507 64.6559 25.2351 64.5909 25.1397 64.1425C25.1283 64.0879 25.1042 64.0345 25.1243 63.9797C25.3318 63.4204 26.4805 63.1398 26.8788 63.3565C26.8788 63.3565 26.2561 63.487 25.8061 63.817C25.9718 63.8811 26.1102 63.9069 26.3296 64.0442C26.9819 64.354 27.3377 64.2806 28.0032 64.046C29.387 63.5572 30.5373 64.3061 30.8486 64.3871C30.8486 64.3871 27.2835 61.6629 25.7021 62.5774Z" fill="black"/>
<path d="M54.28 62.5774L53.8997 62.805C53.8997 62.805 55.0241 62.9641 55.3419 64.0808C55.4314 64.6559 54.747 64.5909 54.8425 64.1425C54.8539 64.0879 54.8779 64.0345 54.8579 63.9797C54.6503 63.4204 53.5017 63.1398 53.1033 63.3565C53.1033 63.3565 53.7262 63.487 54.1762 63.817C54.0108 63.8811 53.8722 63.9069 53.6527 64.0442C53.0001 64.354 52.6447 64.2806 51.979 64.046C50.5952 63.5572 49.4451 64.3061 49.1338 64.3871C49.1338 64.3871 52.6987 61.6629 54.28 62.5774Z" fill="black"/>
</svg>
