<svg width="219" height="47" viewBox="0 0 219 47" fill="none" xmlns="http://www.w3.org/2000/svg">
<g clip-path="url(#clip0_14_1480)">
<path d="M70.5445 28.658V11.2041H67.4407V18.4614H58.9625V11.2041H55.8467V28.658H58.9625V21.0861H67.4407V28.658H70.5445Z" fill="#1A1A1A"/>
<path d="M79.167 28.8513C83.08 28.8513 85.5317 26.2628 85.5317 22.0415C85.5317 17.8564 83.0559 15.2559 79.167 15.2559C75.3024 15.2559 72.8145 17.8685 72.8145 22.0415C72.8145 26.2628 75.2782 28.8513 79.167 28.8513ZM79.167 26.4443C77.1139 26.4443 75.87 24.8234 75.87 22.0535C75.87 19.2958 77.1139 17.6629 79.167 17.6629C81.2322 17.6629 82.4762 19.2837 82.4762 22.0535C82.4762 24.8234 81.2443 26.4443 79.167 26.4443Z" fill="#1A1A1A"/>
<path d="M88.3942 12.4863V15.4377H86.5947V17.7721H88.3942V25.1503C88.3942 27.7025 89.5053 28.7186 92.3074 28.7186C92.9469 28.7186 93.5634 28.6702 93.8892 28.5976V26.2874C93.6959 26.3115 93.2856 26.3478 92.9957 26.3478C91.9087 26.3478 91.4014 25.8277 91.4014 24.7391V17.7721H93.9011V15.4377H91.4014V12.4863H88.3942Z" fill="#1A1A1A"/>
<path d="M95.7976 19.2595C95.7976 21.1343 97.0297 22.3801 99.4452 22.9487L101.836 23.5292C103.153 23.8437 103.636 24.255 103.636 25.0291C103.636 26.0088 102.681 26.6257 101.147 26.6257C99.5777 26.6257 98.5995 25.9604 98.4182 24.7629H95.459C95.6522 27.2184 97.7898 28.8513 101.027 28.8513C104.336 28.8513 106.631 27.1941 106.631 24.7388C106.631 22.7914 105.616 21.7875 102.959 21.1706L100.64 20.6384C99.3357 20.336 98.7201 19.828 98.7201 19.0901C98.7201 18.1225 99.6384 17.4814 101.039 17.4814C102.476 17.4814 103.43 18.183 103.527 19.2958H106.329C106.268 16.9009 104.143 15.2559 101.1 15.2559C97.9232 15.2559 95.7976 16.8645 95.7976 19.2595Z" fill="#1A1A1A"/>
<path d="M115.797 15.2925C113.95 15.2925 112.355 16.2117 111.631 17.6632H111.57V15.4376H108.636V32.9036H111.643V26.4687H111.703C112.464 27.9444 113.95 28.8032 115.845 28.8032C119.167 28.8032 121.293 26.1906 121.293 22.0538C121.293 17.9051 119.155 15.2925 115.797 15.2925ZM114.916 26.2994C112.947 26.2994 111.631 24.606 111.631 22.0538C111.631 19.5138 112.947 17.7963 114.916 17.7963C116.908 17.7963 118.213 19.4775 118.213 22.0538C118.213 24.6423 116.908 26.2994 114.916 26.2994Z" fill="#1A1A1A"/>
<path d="M129.118 28.8513C133.031 28.8513 135.482 26.2628 135.482 22.0415C135.482 17.8564 133.007 15.2559 129.118 15.2559C125.254 15.2559 122.766 17.8685 122.766 22.0415C122.766 26.2628 125.229 28.8513 129.118 28.8513ZM129.118 26.4443C127.065 26.4443 125.821 24.8234 125.821 22.0535C125.821 19.2958 127.065 17.6629 129.118 17.6629C131.183 17.6629 132.427 19.2837 132.427 22.0535C132.427 24.8234 131.195 26.4443 129.118 26.4443Z" fill="#1A1A1A"/>
<path d="M138.346 12.4863V15.4377H136.546V17.7721H138.346V25.1503C138.346 27.7025 139.457 28.7186 142.259 28.7186C142.899 28.7186 143.515 28.6702 143.841 28.5976V26.2874C143.648 26.3115 143.237 26.3478 142.948 26.3478C141.86 26.3478 141.353 25.8277 141.353 24.7391V17.7721H143.853V15.4377H141.353V12.4863H138.346Z" fill="#1A1A1A"/>
<path d="M151.05 23.7469C151.183 26.9644 153.816 28.948 157.826 28.948C162.04 28.948 164.698 26.8676 164.698 23.5534C164.698 20.9529 163.2 19.4893 159.662 18.6789L157.657 18.2192C155.519 17.7112 154.638 17.0339 154.638 15.8727C154.638 14.4212 155.965 13.4536 157.935 13.4536C159.927 13.4536 161.291 14.4333 161.437 16.0663H164.408C164.335 12.994 161.799 10.9136 157.958 10.9136C154.166 10.9136 151.473 13.0061 151.473 16.1026C151.473 18.5942 152.995 20.1424 156.207 20.8802L158.465 21.4125C160.664 21.9326 161.557 22.6583 161.557 23.9163C161.557 25.3677 160.096 26.4079 157.994 26.4079C155.869 26.4079 154.263 25.3556 154.07 23.7469H151.05Z" fill="#1A1A1A"/>
<path d="M166.896 28.6578H169.904V21.1223C169.904 19.1508 171.195 17.8323 173.079 17.8323C174.903 17.8323 176.002 18.9572 176.002 20.8199V28.6578H179.01V20.2151C179.01 17.2033 177.125 15.2802 174.215 15.2802C172.198 15.2802 170.7 16.1268 169.927 17.7355H169.867V10.3936H166.896V28.6578Z" fill="#1A1A1A"/>
<path d="M181.594 28.6578H184.602V15.4373H181.594V28.6578ZM183.092 13.756C184.034 13.756 184.782 13.0303 184.782 12.099C184.782 11.1556 184.034 10.4419 183.092 10.4419C182.161 10.4419 181.4 11.1556 181.4 12.099C181.4 13.0303 182.161 13.756 183.092 13.756Z" fill="#1A1A1A"/>
<path d="M192.911 17.6024C194.697 17.6024 195.93 18.8604 195.989 20.7714H189.734C189.867 18.8845 191.147 17.6024 192.911 17.6024ZM196.001 24.7267C195.652 25.8153 194.528 26.5047 193.079 26.5047C191.062 26.5047 189.709 25.0895 189.709 22.9607V22.7793H198.949V21.7875C198.949 17.7838 196.606 15.2559 192.911 15.2559C189.13 15.2559 186.702 17.9411 186.702 22.1019C186.702 26.2628 189.118 28.8513 193.019 28.8513C196.099 28.8513 198.442 27.17 198.828 24.7267H196.001Z" fill="#1A1A1A"/>
<path d="M201.074 28.6578H204.081V10.3936H201.074V28.6578Z" fill="#1A1A1A"/>
<path d="M211.691 28.803C213.623 28.803 215.145 27.8837 215.857 26.408H215.918V28.6578H218.864V10.3936H215.857V17.663H215.784C215.072 16.1994 213.586 15.2922 211.679 15.2922C208.406 15.2922 206.195 17.9412 206.195 22.0415C206.195 26.154 208.394 28.803 211.691 28.803ZM212.572 17.7961C214.552 17.7961 215.869 19.5015 215.869 22.0536C215.869 24.6179 214.565 26.2992 212.572 26.2992C210.579 26.2992 209.275 24.6542 209.275 22.0536C209.275 19.4652 210.579 17.7961 212.572 17.7961Z" fill="#1A1A1A"/>
<path fill-rule="evenodd" clip-rule="evenodd" d="M20.1881 46.1684C19.9957 46.0961 0.905273 39.8499 0.905273 17.6276V1.38867C0.905273 0.997541 1.2177 0.679688 1.60287 0.679688H39.2614C39.6466 0.679688 39.959 0.997541 39.959 1.38867V17.6276C39.959 39.8499 20.8685 46.0946 20.6762 46.1684C20.5981 46.1981 20.5156 46.2139 20.4321 46.2139C20.3486 46.2139 20.2662 46.1981 20.1881 46.1684ZM28.9421 28.9772C28.1015 29.5565 27.1778 30.014 26.1971 30.3372C23.4526 31.2418 20.525 31.0081 17.9533 29.6792C15.4852 28.4039 13.614 26.2467 12.6856 23.6053C12.642 23.481 12.5147 23.4097 12.3883 23.4379C12.2618 23.4662 12.1754 23.5845 12.1871 23.7152C12.3423 25.4966 12.9745 27.2062 14.0163 28.6604C17.184 33.0826 23.3091 34.0664 27.6695 30.8536C28.2601 30.4184 28.802 29.9174 29.28 29.3648C29.3654 29.2663 29.3654 29.1187 29.2794 29.0202C29.1936 28.9217 29.0496 28.9034 28.9421 28.9772ZM21.304 9.49587C26.8087 11.31 29.9623 17.3666 28.3337 22.9969C28.2971 23.1226 28.3586 23.2568 28.4772 23.3094C28.5632 23.3474 28.6598 23.3346 28.7316 23.2811C28.7589 23.2613 28.7828 23.2355 28.8009 23.2044C29.7074 21.671 30.1868 19.9104 30.1863 18.1137C30.1868 15.4703 29.1684 12.9814 27.3207 11.107C25.4725 9.23249 23.019 8.20022 20.4117 8.20022C19.6799 8.20072 18.9511 8.2829 18.2457 8.4448C18.1202 8.47402 18.0343 8.59333 18.0465 8.72405C18.0587 8.85475 18.1651 8.95575 18.2945 8.96021C19.3113 8.99289 20.3238 9.17261 21.304 9.49587ZM8.72699 19.1307C9.07164 18.1607 9.55396 17.2393 10.1598 16.3927C10.8345 15.4515 11.6404 14.6321 12.5557 13.9573C13.9363 12.9403 15.5018 12.2858 17.2099 12.011C19.9466 11.5714 22.7107 12.2017 24.9929 13.785C25.0842 13.8483 25.2028 13.8444 25.2892 13.7811C25.3038 13.7701 25.3175 13.7573 25.3301 13.7429C25.4161 13.6449 25.4171 13.4973 25.3322 13.3983C24.1742 12.0496 22.6711 11.0436 20.9859 10.4886C15.8612 8.7993 10.335 11.6541 8.66939 16.8531C8.44386 17.5567 8.29545 18.2855 8.22906 19.0183C8.21686 19.1489 8.30278 19.2683 8.42922 19.297C8.55614 19.3252 8.68355 19.2534 8.72699 19.1307ZM13.1837 29.2737C9.7817 24.5246 10.741 17.7446 15.3215 14.1606C15.424 14.0804 15.4518 13.9353 15.3864 13.8219C15.3209 13.7085 15.1824 13.6625 15.0637 13.714C13.4449 14.4126 12.0311 15.5558 10.9924 17.0065C7.82461 21.4287 8.79461 27.6408 13.1549 30.8535C13.7466 31.2892 14.3836 31.6571 15.0486 31.9472C15.1345 31.9844 15.2296 31.971 15.3014 31.9185C15.3293 31.8977 15.3532 31.8715 15.3717 31.8398C15.4376 31.7264 15.4098 31.5814 15.3078 31.5011C14.5043 30.8689 13.7896 30.1193 13.1837 29.2737Z" fill="#1A1A1A"/>
</g>
<defs>
<clipPath id="clip0_14_1480">
<rect width="219" height="47" fill="white"/>
</clipPath>
</defs>
</svg>
