<svg width="135" height="52" viewBox="0 0 135 52" fill="none" xmlns="http://www.w3.org/2000/svg">
<path d="M21.8121 13.707L20.2114 17.7485H15.3445V35.1856H10.4782V17.748H4.41895V13.707H21.8121Z" fill="#1A1A1A"/>
<path d="M31.4862 28.8937H21.8795C21.9207 29.7847 22.3391 30.4798 23.1351 30.9809C23.8469 31.4366 24.663 31.6645 25.5842 31.6645C26.9654 31.6645 28.326 31.3178 29.6656 30.6216L30.7328 33.7184C28.9744 34.9134 27.0065 35.511 24.8303 35.511C22.2557 35.511 20.2884 34.696 18.9278 33.0655C17.7344 31.6535 17.1377 29.85 17.1377 27.6559C17.1377 25.3747 17.755 23.4627 18.9905 21.9192C20.329 20.2461 22.1191 19.4097 24.3591 19.4097C26.4521 19.4097 28.1625 20.1431 29.4919 21.6098C30.8214 23.0765 31.4857 24.9946 31.4857 27.3617V28.8937H31.4862ZM26.6821 25.6354C26.5565 23.8537 25.7198 22.9626 24.1708 22.9626C23.438 22.9626 22.8466 23.2452 22.3965 23.8099C21.9466 24.3751 21.7223 24.9836 21.7223 25.6354H26.6821Z" fill="#1A1A1A"/>
<path d="M46.4623 35.1847H41.2594L38.086 30.2855L35.101 35.1847H30.2314L35.5057 27.2644L30.6081 19.7681H35.7884L38.6452 24.5594L41.5649 19.7681H46.4312L41.3454 27.5574L46.4623 35.1847Z" fill="#1A1A1A"/>
<path d="M56.6836 33.7514C55.0929 34.9251 53.1879 35.5123 50.9694 35.5123C48.3115 35.5123 46.9825 34.2405 46.9825 31.6986V23.3221H44.1885V19.7697H46.983V16.1198L51.7233 14.7178V19.7697H56.4008L55.0829 23.3221H51.7233V29.802C51.7233 30.9143 52.1944 31.4696 53.1362 31.4696C53.9107 31.4696 54.6952 31.2309 55.4913 30.7528L56.6836 33.7514Z" fill="#1A1A1A"/>
<path d="M79.3357 35.1851H74.5947V24.2343C74.5947 23.1264 74.5947 22.3546 74.5947 21.9197C74.4904 22.1596 74.0279 22.9193 73.2102 24.2015L69.8107 29.4813H67.702L63.8307 24.006C63.5157 23.5716 63.0535 22.876 62.4452 21.9197H62.3824C62.3824 22.3979 62.3824 23.1154 62.3824 24.0711V35.1851H57.6416V13.707H61.9746L67.1549 21.2039C67.8033 22.1377 68.3367 22.9856 68.7556 23.7463H68.8184C69.2579 22.8333 69.7601 21.9318 70.3251 21.0413L74.9719 13.7075H79.3357V35.1851Z" fill="#1A1A1A"/>
<path d="M94.4227 35.1845H90.4036L89.7444 33.8804C88.5516 34.9671 87.1706 35.511 85.6006 35.511C84.1145 35.511 82.9005 35.0432 81.9587 34.1094C81.0175 33.1745 80.5459 31.9466 80.5459 30.4261C80.5459 28.8181 81.1402 27.5688 82.3295 26.6777C83.456 25.8517 84.988 25.3955 86.9274 25.309L89.3059 25.2109V25.0806C89.3059 24.4288 89.0557 23.9288 88.5544 23.5815C88.0546 23.2343 87.4392 23.0601 86.7102 23.0601C85.3341 23.0601 84.0729 23.375 82.9266 24.0054L81.5512 21.1048C83.2467 19.9749 85.308 19.4097 87.736 19.4097C92.0265 19.4097 94.1717 21.3436 94.1717 25.2115V32.2976C94.171 33.6537 94.2542 34.6155 94.4227 35.1845ZM89.3052 31.2537V28.3728H87.7035C86.0912 28.4369 85.2862 28.9857 85.2862 30.0181C85.2862 31.1382 85.9869 31.6973 87.3891 31.6973C88.2055 31.6973 88.8435 31.55 89.3052 31.2537Z" fill="#1A1A1A"/>
<path d="M110.451 38.5574C110.451 40.0356 109.729 41.2521 108.285 42.2083C106.694 43.2726 104.496 43.8054 101.692 43.8054C99.5574 43.8054 97.8457 43.3596 96.5591 42.4696C95.2726 41.5785 94.6289 40.5023 94.6289 39.242C94.6289 38.3947 94.901 37.6449 95.4446 36.9937C95.9261 36.3852 96.533 35.9509 97.2662 35.6896C96.6169 35.3205 96.292 34.6583 96.292 33.702C96.292 32.4845 96.9624 31.5507 98.3018 30.8984C97.4855 30.5078 96.8369 29.8555 96.3554 28.9431C95.895 28.0957 95.6645 27.1516 95.6645 26.1082C95.6645 24.5658 96.1672 23.2509 97.1711 22.1642C98.3646 20.8826 100.039 20.2412 102.194 20.2412C103.367 20.2412 104.371 20.5024 105.208 21.0233C105.313 21.0885 105.438 21.0562 105.585 20.9258C106.506 20.0134 107.793 19.5571 109.447 19.5571C109.802 19.5571 110.189 19.5791 110.609 19.6218L109.729 23.0114C108.807 22.816 108.129 22.7946 107.688 22.9463C108.484 24.033 108.881 25.3042 108.881 26.7594C108.881 28.3888 108.258 29.7044 107.013 30.7034C105.768 31.7024 104.298 32.2019 102.602 32.2019C101.724 32.2019 101.033 32.1153 100.531 31.9417C100.426 32.2457 100.373 32.5387 100.373 32.8208C100.373 33.4068 101.242 33.8422 102.979 34.1248C105.533 34.5378 107.155 34.8747 107.846 35.1348C109.581 35.8314 110.451 36.9707 110.451 38.5574ZM105.302 39.1111C105.302 38.5464 104.455 38.1011 102.759 37.7753C100.562 37.3623 99.3262 37.0797 99.0547 36.928C98.636 37.3196 98.4273 37.7966 98.4273 38.3624C98.4273 38.9484 98.7622 39.4534 99.4319 39.8773C100.101 40.3012 101.002 40.5138 102.131 40.5138C104.245 40.5138 105.302 40.045 105.302 39.1111ZM104.267 26.2703C104.267 25.6842 104.078 25.1628 103.701 24.7066C103.261 24.1414 102.665 23.8588 101.912 23.8588C100.675 23.8588 100.059 24.5872 100.059 26.0424C100.059 26.738 100.237 27.3131 100.593 27.7699C100.969 28.2907 101.493 28.552 102.163 28.552C103.564 28.552 104.267 27.7913 104.267 26.2703Z" fill="#1A1A1A"/>
<path d="M117.075 16.0354C117.075 16.8181 116.803 17.4857 116.258 18.04C115.715 18.5943 115.044 18.8714 114.249 18.8714C113.453 18.8714 112.785 18.5998 112.24 18.0564C111.696 17.5137 111.423 16.8394 111.423 16.036C111.423 15.2539 111.696 14.5911 112.24 14.0478C112.784 13.505 113.453 13.2334 114.249 13.2334C115.044 13.2334 115.714 13.4996 116.258 14.0319C116.803 14.5638 117.075 15.2325 117.075 16.0354Z" fill="#1A1A1A"/>
<path d="M116.604 19.7681H111.863V35.1841H116.604V19.7681Z" fill="#1A1A1A"/>
<path d="M131.316 33.7178C129.725 34.9129 127.852 35.5104 125.696 35.5104C123.29 35.5104 121.405 34.7272 120.045 33.1636C118.768 31.7077 118.13 29.8176 118.13 27.4921C118.13 25.1031 118.946 23.1368 120.579 21.5933C122.107 20.1381 123.938 19.4097 126.073 19.4097C127.998 19.4097 129.505 19.7898 130.594 20.5505L130.5 24.396C129.478 23.5054 128.269 23.0601 126.872 23.0601C125.768 23.0601 124.824 23.4567 124.043 24.2497C123.261 25.0434 122.87 26.0478 122.87 27.2642C122.87 28.4593 123.173 29.4474 123.777 30.2306C124.487 31.1645 125.507 31.6321 126.843 31.6321C127.885 31.6321 129.011 31.2844 130.221 30.5893L131.316 33.7178Z" fill="#1A1A1A"/>
<path d="M118.506 11.4236C119.76 12.7255 121.035 15.0915 120.215 16.8113C122.582 15.9279 120.766 11.9834 119.366 10.5298C117.966 9.07562 114.168 7.19262 113.315 9.64855C114.972 8.79849 117.253 10.1229 118.506 11.4236Z" fill="#1A1A1A"/>
<path d="M116.907 13.0832C118.215 14.441 118.436 16.1416 117.959 16.5633C120.121 16.2588 118.715 13.1736 117.769 12.1899C116.818 11.2035 113.848 9.74664 113.556 11.9916C113.962 11.496 115.598 11.7249 116.907 13.0832Z" fill="#1A1A1A"/>
</svg>
